<svg width="320" height="318" viewBox="0 0 320 318" fill="none" xmlns="http://www.w3.org/2000/svg">
<path d="M262 60C262 52.1207 263.552 44.3185 266.567 37.039C269.583 29.7595 274.002 23.1451 279.574 17.5736C285.145 12.0021 291.759 7.58251 299.039 4.56723C306.319 1.55195 314.121 -3.44416e-07 322 0L322 60L262 60Z" fill="#5A808A"/>
<path d="M291 77.5C291 86.0604 297.94 93 306.5 93C315.06 93 322 86.0604 322 77.5V62H306.5C297.94 62 291 68.9396 291 77.5Z" fill="#EDECEA"/>
<circle cx="4" cy="4" r="4" transform="matrix(-1 0 0 1 30 222)" fill="#D9AE4F"/>
<circle cx="9.5" cy="245.5" r="12.5" fill="#5A808A"/>
<path d="M46.5 263C46.5 270.157 45.0904 277.744 42.3515 284.356C39.6126 290.968 35.5982 296.977 30.5374 302.037C25.4766 307.098 19.4686 311.113 12.8563 313.851C6.24407 316.59 -0.842889 318 -7.99993 318L-8 263H46.5Z" fill="#EDECEA"/>
</svg>
