<svg width="137" height="121" viewBox="0 0 137 121" fill="none" xmlns="http://www.w3.org/2000/svg">
<path d="M18 59.5C18 75.2804 24.2687 90.4144 35.4271 101.573C46.5856 112.731 61.7196 119 77.5 119C93.2804 119 108.414 112.731 119.573 101.573C130.731 90.4144 137 75.2804 137 59.5L77.5 59.5H18Z" fill="#EDECEA"/>
<path d="M7.07002 59L-0.00174856 74.8111L17.2269 73.0299L7.07002 59ZM48.6202 120.451C49.4216 120.661 50.2413 120.181 50.4511 119.38C50.6609 118.578 50.1813 117.759 49.3798 117.549L48.6202 120.451ZM6.99779 72.77C11.1617 90.5533 24.3223 114.091 48.6202 120.451L49.3798 117.549C26.632 111.594 13.9648 89.3658 9.91879 72.0861L6.99779 72.77Z" fill="#EDECEA"/>
</svg>
