<svg width="130" height="130" viewBox="0 0 130 130" fill="none" xmlns="http://www.w3.org/2000/svg">
<g filter="url(#filter0_d_2015_57)">
<path d="M23.1962 43.7372L23.1962 39.0313C23.1962 37.6927 24.0358 36.2948 25.9339 34.9157C27.823 33.5432 30.6458 32.2798 34.3139 31.209C41.6411 29.07 52.1623 27.75 64.8372 27.75C77.5121 27.75 88.0333 29.07 95.3605 31.209C99.0286 32.2798 101.851 33.5432 103.74 34.9157C105.639 36.2948 106.478 37.6927 106.478 39.0312V43.7287C105.834 43.2673 105.037 42.9028 104.2 42.617C102.265 41.9564 99.9179 41.65 98.1749 41.65H67.8651H31.5606C29.8178 41.65 27.4562 41.9563 25.5067 42.6164C24.6572 42.9041 23.8478 43.2715 23.1962 43.7372ZM23.1962 89.5625V77.369C23.8894 77.7322 24.756 77.9409 25.64 78.0686C27.2733 78.3047 29.2128 78.2934 30.7619 78.2844C31.0423 78.2828 31.3099 78.2812 31.5606 78.2812H67.8651H98.1749C98.4258 78.2812 98.6933 78.2828 98.9734 78.2844C100.519 78.2934 102.445 78.3047 104.066 78.0685C104.937 77.9415 105.792 77.7344 106.478 77.3747V89.5625C106.478 91.6586 104.278 93.625 101.172 93.625H100.422V94.375V99.1875C100.422 101.284 98.2218 103.25 95.1164 103.25H89.0606C85.9553 103.25 83.7547 101.284 83.7547 99.1875V94.375V93.625H83.0047H46.6696H45.9196V94.375V99.1875C45.9196 101.284 43.7191 103.25 40.6138 103.25H34.5579C31.4526 103.25 29.2521 101.284 29.2521 99.1875V94.375V93.625H28.5021C25.3968 93.625 23.1962 91.6586 23.1962 89.5625ZM38.0444 92.7529C39.8007 92.7529 41.5105 92.1999 42.7932 91.1806C44.0803 90.1577 44.8503 88.7286 44.8503 87.1904C44.8503 85.6523 44.0803 84.2232 42.7932 83.2003C41.5105 82.181 39.8007 81.6279 38.0444 81.6279C36.2881 81.6279 34.5784 82.181 33.2957 83.2003C32.0086 84.2232 31.2386 85.6523 31.2386 87.1904C31.2386 88.7286 32.0086 90.1577 33.2957 91.1806C34.5784 92.1999 36.2881 92.7529 38.0444 92.7529ZM92.1191 92.7188C93.8754 92.7188 95.5851 92.1657 96.8678 91.1464C98.1549 90.1236 98.9249 88.6944 98.9249 87.1562C98.9249 85.6181 98.1549 84.189 96.8678 83.1661C95.5851 82.1468 93.8754 81.5937 92.1191 81.5937C90.3628 81.5937 88.6531 82.1468 87.3704 83.1661C86.0833 84.189 85.3132 85.6181 85.3132 87.1562C85.3132 88.6944 86.0833 90.1236 87.3704 91.1464C88.6531 92.1657 90.3628 92.7188 92.1191 92.7188ZM83.3265 34.7C83.3265 32.8108 81.4583 31.5437 79.5486 31.5437H49.2694C47.3597 31.5437 45.4915 32.8108 45.4915 34.7C45.4915 36.5892 47.3597 37.8563 49.2694 37.8563H79.5486C81.4583 37.8563 83.3265 36.5892 83.3265 34.7Z" stroke="#E1AC38" stroke-width="1.5" shape-rendering="crispEdges"/>
</g>
<path d="M19 71.636V71.5705C19.4353 70.8934 19.7914 69.9433 20.0684 68.7202C20.3454 67.4971 20.5531 66.1429 20.6916 64.6577C20.8301 63.1725 20.8994 61.6218 20.8994 60.0055C20.8994 58.3893 20.8301 56.8495 20.6916 55.3861C20.5531 53.9227 20.3553 52.6123 20.0981 51.4547C19.8409 50.2753 19.5243 49.3798 19.1484 48.7682V48.7027H26.7161C26.8744 49.9476 26.8942 51.0506 26.7755 52.0116C26.6568 52.9508 26.4589 53.8135 26.1819 54.5998C25.9049 55.3643 25.5884 56.0741 25.2322 56.7293C24.8761 57.3846 24.5398 58.0289 24.2232 58.6623C23.9067 59.2957 23.6297 59.9509 23.3923 60.628C23.1548 61.2832 23.0361 62.0149 23.0361 62.823C23.0163 64.2646 23.3428 65.3457 24.0155 66.0665C24.7079 66.7654 25.8654 67.1039 27.4877 67.0821C29.1101 67.1039 30.2576 66.7654 30.9303 66.0665C31.6228 65.3457 31.9591 64.2646 31.9393 62.823C31.9196 62.0149 31.7909 61.2832 31.5535 60.628C31.3359 59.9509 31.0688 59.2957 30.7522 58.6623C30.4357 58.0289 30.0993 57.3846 29.7432 56.7293C29.3871 56.0741 29.0705 55.3643 28.7935 54.5998C28.5165 53.8135 28.3187 52.9508 28.2 52.0116C28.0813 51.0506 28.1011 49.9476 28.2593 48.7027H35.8271V48.7682C35.2731 49.6419 34.7785 50.7667 34.3432 52.1427C33.9277 53.5187 33.6408 55.0803 33.4826 56.8276C33.443 57.3518 33.4034 57.9634 33.3639 58.6623C33.3243 59.3612 33.3144 60.0929 33.3342 60.8573C33.3737 61.6218 33.4529 62.3753 33.5716 63.1179C33.6903 63.8387 33.8882 64.4939 34.1651 65.0836C34.4619 65.6733 34.8477 66.1538 35.3226 66.5251C35.8172 66.8746 36.4305 67.0493 37.1626 67.0493C38.7849 67.0712 39.9324 66.7326 40.6051 66.0337C41.2976 65.3129 41.6339 64.2318 41.6142 62.7903C41.5944 61.9822 41.4658 61.2505 41.2284 60.5952C41.0107 59.9182 40.7436 59.2629 40.4271 58.6295C40.1105 57.9961 39.7742 57.3518 39.418 56.6966C39.0619 56.0413 38.7453 55.3315 38.4684 54.5671C38.1914 53.7808 37.9935 52.918 37.8748 51.9789C37.7561 51.0179 37.7759 49.9149 37.9342 48.6699H45.5019L45.4129 48.7354C45.037 49.3252 44.7204 50.2097 44.4632 51.3892C44.206 52.5686 44.0081 53.9009 43.8696 55.3861C43.7311 56.8495 43.6619 58.4002 43.6619 60.0383C43.6619 61.6545 43.7311 63.2162 43.8696 64.7232C44.0081 66.2084 44.2159 67.5626 44.4929 68.7857C44.7699 70.0088 45.126 70.9589 45.5613 71.636H19Z" fill="#282828"/>
<path d="M52.4926 72.1887C50.6312 72.1887 49.131 71.698 47.992 70.7166C46.853 69.7045 46.2834 68.2784 46.2834 66.4383C46.2834 64.6595 46.8113 63.2794 47.867 62.298C48.9505 61.3166 50.2006 60.6419 51.6175 60.2739C53.0621 59.9058 54.6873 59.6298 56.4931 59.4458C57.9099 59.3538 59.0073 59.1545 59.7852 58.8478C60.5908 58.5411 60.9937 57.9584 60.9937 57.0997C60.9937 55.8729 60.6047 54.9375 59.8268 54.2935C59.0767 53.6188 58.16 53.2814 57.0765 53.2814C55.7985 53.2814 54.7568 53.6648 53.9511 54.4315C53.1454 55.1982 52.6732 56.2716 52.5342 57.6517H47.1586C47.2419 55.6582 47.742 53.9561 48.6588 52.5453C49.5755 51.1039 50.7701 50.0152 52.2425 49.2791C53.7427 48.5431 55.3818 48.175 57.1598 48.175C58.9378 48.175 60.5214 48.5431 61.9104 49.2791C63.2995 50.0152 64.383 51.0886 65.1609 52.4993C65.9387 53.9101 66.3277 55.5969 66.3277 57.5597V66.0243H68.7446V71.6366H61.0353V63.3561C60.563 65.9322 59.5907 68.0484 58.1183 69.7045C56.6737 71.3606 54.7984 72.1887 52.4926 72.1887ZM55.3679 67.2203C56.3681 67.2203 57.2987 66.8983 58.16 66.2543C59.0212 65.6102 59.7018 64.7822 60.2019 63.7701C60.7297 62.7274 60.9937 61.6233 60.9937 60.4579L61.0353 59.0318C60.702 59.3691 60.2852 59.6145 59.7852 59.7678C59.3129 59.9212 58.6461 60.0745 57.7849 60.2279C57.7294 60.2279 57.6738 60.2432 57.6182 60.2739C57.5627 60.2739 57.521 60.2739 57.4932 60.2739C55.743 60.4579 54.4234 60.8566 53.5344 61.4699C52.6454 62.0527 52.2009 62.942 52.2009 64.1381C52.2009 65.1809 52.4926 65.9629 53.076 66.4843C53.6594 66.975 54.4234 67.2203 55.3679 67.2203Z" fill="#282828"/>
<path d="M75.7954 71.6366V54.7075H67.9193V48.6351H89.5054V54.7075H81.5878V71.6366H75.7954Z" fill="#282828"/>
<path d="M91.4142 72.1887C90.7474 72.1887 90.1363 72.1273 89.5806 72.0047C89.025 71.882 88.5388 71.744 88.1221 71.5906V65.8402C88.4833 65.9016 88.8444 65.9476 89.2056 65.9783C89.5667 66.0089 89.9279 66.0243 90.2891 66.0243C90.6224 66.0243 90.928 65.9169 91.2058 65.7022C91.4837 65.4876 91.7059 65.1349 91.8726 64.6442C92.1504 63.9081 92.3449 62.6967 92.456 61.0099C92.5671 59.3231 92.6505 57.2683 92.706 54.8455C92.706 54.4468 92.706 54.0481 92.706 53.6494C92.706 53.2201 92.706 52.806 92.706 52.4073V48.6351H111V71.6366H105.208V54.5695H98.04V55.5355C97.9845 59.0625 97.8317 61.976 97.5817 64.2761C97.3594 66.5456 96.9705 68.2324 96.4148 69.3365C95.9426 70.2872 95.2758 71.0079 94.4146 71.4986C93.5811 71.9587 92.581 72.1887 91.4142 72.1887Z" fill="#282828"/>
<defs>
<filter id="filter0_d_2015_57" x="19.9575" y="25" width="91.7593" height="81" filterUnits="userSpaceOnUse" color-interpolation-filters="sRGB">
<feFlood flood-opacity="0" result="BackgroundImageFix"/>
<feColorMatrix in="SourceAlpha" type="matrix" values="0 0 0 0 0 0 0 0 0 0 0 0 0 0 0 0 0 0 127 0" result="hardAlpha"/>
<feOffset dx="1"/>
<feGaussianBlur stdDeviation="1"/>
<feComposite in2="hardAlpha" operator="out"/>
<feColorMatrix type="matrix" values="0 0 0 0 0 0 0 0 0 0 0 0 0 0 0 0 0 0 0.35 0"/>
<feBlend mode="normal" in2="BackgroundImageFix" result="effect1_dropShadow_2015_57"/>
<feBlend mode="normal" in="SourceGraphic" in2="effect1_dropShadow_2015_57" result="shape"/>
</filter>
</defs>
</svg>
