<svg width="70" height="70" viewBox="0 0 70 70" fill="none" xmlns="http://www.w3.org/2000/svg">
<circle cx="35" cy="35" r="35" fill="#D9AE4F"/>
<path fill-rule="evenodd" clip-rule="evenodd" d="M36.8492 37.3273C39.6968 33.7215 41.6241 29.3025 41.302 24.3509C40.3741 10.084 21.9644 13.2225 18.3833 20.4232C14.8022 27.624 15.2278 45.8892 19.856 47.1761C21.7017 47.6894 25.6336 46.4321 29.6354 43.83L27.1236 63.0004H41.9551L36.8492 37.3273Z" fill="#EDECEA"/>
<path fill-rule="evenodd" clip-rule="evenodd" d="M31.7161 36.3234C33.5553 40.1318 36.0989 42.9998 38.6402 42.9998C43.467 42.9998 46.8991 36.038 46.8991 28.5529C46.8991 28.29 46.8942 28.0287 46.8847 27.7694C51.9906 31.5493 45.2439 42.9998 51.9999 42.9998C61.1914 42.9998 68.3419 18 55.5 18C46.7666 18 46.8991 20.3237 45.9502 22.4049C45.22 20.1842 44.1065 18.3171 42.745 17.0132C42.4175 16.6155 41.9153 16.2349 41.2675 15.8821C40.8714 15.6483 40.4615 15.4579 40.0403 15.3147C37.8075 14.4295 34.5735 13.8052 30.961 13.6691C30.2864 13.6437 29.6239 13.6362 28.9776 13.6456C28.9671 9.97339 26.2044 7 22.7979 7C19.3849 7 16.6181 9.98475 16.6181 13.6666C16.6181 17.2273 19.2058 20.1361 22.4631 20.3237C24.3264 20.9439 26.7205 21.3993 29.3755 21.5913C29.1178 22.6371 28.9777 23.8251 28.9777 25.1676C28.9777 26.353 29.0989 27.6103 29.3223 28.8868C29.8981 28.1484 30.6681 27.6666 31.4496 27.6666C33.6357 27.6666 35.1575 29.6067 35.1575 31.6666C35.1575 34.2809 33.7584 36.1721 31.7161 36.3234Z" fill="#5A808A"/>
<circle cx="21" cy="28" r="1" fill="#5A808A"/>
</svg>
