<svg width="70" height="70" viewBox="0 0 70 70" fill="none" xmlns="http://www.w3.org/2000/svg">
<circle cx="35" cy="35" r="35" fill="#D9AE4F"/>
<path fill-rule="evenodd" clip-rule="evenodd" d="M39.2552 47.8197C31.7091 47.8197 28.9646 39.3995 24.6775 34.7787C21.6101 31.4727 16.375 32.4585 14.8254 27.8301C10.9289 16.1915 21.358 8 34.9635 8C48.5689 8 57.7425 15.1842 59.7233 25.9839C61.7041 36.7836 52.8606 47.8197 39.2552 47.8197Z" fill="#5A808A"/>
<path fill-rule="evenodd" clip-rule="evenodd" d="M38.4217 40.3009C41.4641 36.9725 43.5233 32.8934 43.1792 28.3226C42.1878 15.1531 22.5184 18.0502 18.6923 24.6971C14.8662 31.3439 15.3209 48.2042 20.2658 49.3922C22.2378 49.866 26.4387 48.7055 30.7144 46.3035L28.0306 63.9994H43.877L38.4217 40.3009Z" fill="#EDECEA"/>
<path fill-rule="evenodd" clip-rule="evenodd" d="M31.7418 31.8286C32.3176 31.5447 32.9773 31.3834 33.6784 31.3834C35.9235 31.3834 37.7434 33.0365 37.7434 35.0757C37.7434 35.908 37.4403 36.676 36.9287 37.2935C37.8919 38.7732 38.5493 40.3279 38.7647 41.9261C42.1032 41.9261 54.2873 30.1526 42.1495 19.0757C30.0118 7.99874 12.4712 23.8117 17.742 24.7339C20.7725 25.2641 26.8756 27.9606 31.7418 31.8286Z" fill="#5A808A"/>
<circle cx="23" cy="34" r="1" fill="#5A808A"/>
</svg>
