<svg width="70" height="70" viewBox="0 0 70 70" fill="none" xmlns="http://www.w3.org/2000/svg">
<circle cx="35" cy="35" r="35" fill="#D9AE4F"/>
<path fill-rule="evenodd" clip-rule="evenodd" d="M45.8465 33.5918C49.2852 29.569 51.6125 24.639 51.2236 19.1148C50.1031 3.19798 27.8723 6.69947 23.548 14.7329C19.2236 22.7663 19.7375 43.1438 25.3263 44.5796C27.5551 45.1522 32.3032 43.7495 37.1356 40.8465L34.1024 62.2338H52.0122L45.8465 33.5918Z" fill="#EDECEA"/>
<path fill-rule="evenodd" clip-rule="evenodd" d="M31.4468 15.8966C33.8772 17.2516 34.5146 26.404 36.5967 29.7344C37.1038 29.5357 38.7483 22.8132 39.3261 22.8132C41.799 22.8132 43.8036 24.8112 43.8036 27.2758C43.8036 28.5269 39.9289 33.9241 39.0967 34.7344C40.1327 36.1918 44.6519 33.4482 45.9824 35.0192C50.9474 32.0503 55.3371 23.0891 50.5964 14.7359C46.5176 -1.99632 21.5433 14.0564 17.0967 11.2345C16.1247 17.3063 22.5967 23.7344 31.4468 15.8966Z" fill="#5A808A"/>
<circle cx="27" cy="25" r="1" fill="#5A808A"/>
</svg>
