<svg width="70" height="70" viewBox="0 0 70 70" fill="none" xmlns="http://www.w3.org/2000/svg">
<circle cx="35" cy="35" r="35" fill="#D9AE4F"/>
<path fill-rule="evenodd" clip-rule="evenodd" d="M35.2428 38.3761C38.0076 34.6367 39.8788 30.0541 39.5661 24.9191C38.6652 10.1239 20.7909 13.3786 17.314 20.846C13.8371 28.3134 14.2503 47.255 18.7439 48.5896C20.5359 49.1219 24.3535 47.8181 28.2389 45.1196L25.8001 64.9999H40.2002L35.2428 38.3761Z" fill="#EDECEA"/>
<path fill-rule="evenodd" clip-rule="evenodd" d="M15.9542 24.1984C16.0968 23.2305 16.4454 22.1556 16.7267 21.2399C17.0894 20.0593 17.6382 18.995 18.2421 17.9918C19.3791 16.1032 20.7431 14.3977 22.2491 12.9822C25 10.3967 28.5018 8.90534 31.9453 9.38966C33.684 9.63417 35.3717 10.3983 36.8083 11.6703C38.1062 12.8195 39.3546 14.5111 41.0352 14.6327C42.8639 14.7648 44.5401 12.9051 46.0067 11.7565C47.6603 10.4616 49.4194 9.51804 51.352 9.15127C54.5896 8.53704 57.631 9.79742 59.8623 12.8581C62.2367 16.1151 63.9627 20.8915 62.4034 25.207C62.1136 26.0092 61.7407 26.6855 61.2056 27.246C60.7148 27.76 59.9652 28.3069 59.7663 29.1282C59.5549 30.0011 60.1863 31.1274 60.4311 31.9151C60.7818 33.0437 61.0698 34.2283 60.9674 35.455C60.7992 37.4695 59.7005 39.3927 58.5403 40.7168C57.3597 42.0642 55.9066 42.8368 54.3546 43.193C53.3183 43.4308 52.2592 43.562 51.2059 43.4727C50.683 43.4284 50.2217 43.2611 49.7151 43.128C49.2224 42.9985 48.9471 43.1493 48.5291 43.4606C46.5875 44.907 44.4998 45.4665 42.2578 45.2515C40.3656 45.0698 38.1847 44.5415 36.6412 43.0477C34.927 41.3886 34.9611 39.1008 35.3645 36.6565C34.9371 36.9005 33.7548 37.0517 34.4613 36.0789C34.7412 35.6936 35.27 35.5369 35.6291 35.3103C36.0473 35.0464 36.4719 34.7054 36.7966 34.2751C38.1077 32.5373 36.7835 29.0008 35.1356 28.418C32.6873 27.5522 32.1391 31.5418 30.3913 32.5738C29.3864 33.1672 28.3352 32.3562 27.5823 31.5281C26.5738 30.4187 25.8865 28.949 25.293 27.4534C24.8042 26.2218 24.3493 24.9728 23.8511 23.7473C23.6185 23.175 22.813 21.5572 23.2175 20.9101C21.4639 20.5072 19.5107 21.3468 18.0004 22.448C17.3762 22.9032 16.9003 23.405 16.5673 24.2087C16.496 24.3809 16.3407 24.8927 16.1457 24.9137C15.7827 24.9528 15.9184 24.4416 15.9542 24.1984Z" fill="#5A808A"/>
<circle cx="21" cy="32" r="1" fill="#5A808A"/>
</svg>
