<svg width="70" height="70" viewBox="0 0 70 70" fill="none" xmlns="http://www.w3.org/2000/svg">
<circle cx="35" cy="35" r="35" fill="#D9AE4F"/>
<path fill-rule="evenodd" clip-rule="evenodd" d="M42.1568 36.0435C45.8556 32.2573 48.3591 27.6174 47.9408 22.4182C46.7354 7.43788 22.8222 10.7334 18.1706 18.2941C13.519 25.8549 14.0717 45.0335 20.0835 46.3848C22.481 46.9237 27.5884 45.6036 32.7865 42.8714L29.5238 63.0003H48.7891L42.1568 36.0435Z" fill="#EDECEA"/>
<path fill-rule="evenodd" clip-rule="evenodd" d="M43.6371 39.4152C46.0551 30.0345 52.9436 23.64 51.8915 19.4472C51.1902 16.652 49.3209 14.9138 46.2836 14.2325C44.7127 8.69085 39.6464 6.33377 31.0846 7.16126C18.2419 8.4025 10.4035 13.0534 13.7885 23.2875C16.9002 23.2875 20.6566 22.3062 25.8509 23.9875C27.4991 24.521 28.6779 26.1753 29.3874 28.9506H31.7347C34.0128 25.6571 36.2591 24.4469 38.4735 25.3198C40.6879 26.1928 41.1913 28.3131 39.9836 31.681L41.1399 39.4152H43.6371Z" fill="#5A808A"/>
<circle cx="21" cy="29" r="1" fill="#5A808A"/>
</svg>
