<svg width="70" height="70" viewBox="0 0 70 70" fill="none" xmlns="http://www.w3.org/2000/svg">
<circle cx="35" cy="35" r="35" fill="#D9AE4F"/>
<path fill-rule="evenodd" clip-rule="evenodd" d="M38.3038 38.4931C41.8964 35.0512 44.328 30.8331 43.9217 26.1066C42.751 12.4881 19.5247 15.484 15.0067 22.3574C10.4887 29.2308 11.0256 46.6659 16.8647 47.8943C19.1933 48.3843 24.154 47.1842 29.2028 44.7003L26.0337 62.9994H44.7456L38.3038 38.4931Z" fill="#EDECEA"/>
<path fill-rule="evenodd" clip-rule="evenodd" d="M34.6108 16.4096C25.2108 13.7516 13.0124 16.8577 14.6448 23.0877C15.693 27.0881 21.3695 29.0863 26.9541 31.2247C27.7761 30.0598 29.3439 29.2727 31.1428 29.2727C33.7938 29.2727 35.9429 30.9821 35.9429 33.0909C35.9429 33.8504 35.664 34.5582 35.1833 35.1529C37.062 36.4868 38.3876 38.0924 38.7082 40.1747C41.7362 40.1747 46.6303 32.9182 45.0146 26.0335C45.4382 26.0714 45.8686 26.0909 46.3046 26.0909C52.7635 26.0909 57.9995 21.8172 57.9995 16.5454C57.9995 11.2736 52.7635 7 46.3046 7C39.9012 7 34.6999 11.2004 34.6108 16.4096Z" fill="#5A808A"/>
<circle cx="17" cy="33" r="1" fill="#5A808A"/>
</svg>
