<svg width="70" height="70" viewBox="0 0 70 70" fill="none" xmlns="http://www.w3.org/2000/svg">
<circle cx="35" cy="35" r="35" fill="#D9AE4F"/>
<path fill-rule="evenodd" clip-rule="evenodd" d="M15.8575 20.3019C13.3506 29.5398 10.0836 50.3044 13.4173 53.5617H34.5082C34.5103 53.5242 34.5125 53.4869 34.5145 53.4497C42.3317 52.5846 48.4116 45.9568 48.4116 37.909V22.6363C48.4116 14.0006 41.411 7 32.7753 7H31.3208C23.4784 7 16.9845 12.7735 15.8575 20.3019Z" fill="#5A808A"/>
<path fill-rule="evenodd" clip-rule="evenodd" d="M40.2211 34.9938C43.5723 31.0602 45.8404 26.2395 45.4614 20.8377C44.3694 5.27379 22.7038 8.69766 18.4895 16.553C14.2751 24.4083 14.7758 44.334 20.2226 45.738C22.3947 46.2979 27.022 44.9264 31.7316 42.0877L28.7755 63.0009H46.23L40.2211 34.9938Z" fill="#EDECEA"/>
<path fill-rule="evenodd" clip-rule="evenodd" d="M35.5029 32.3647C34.6987 41.0032 35.0209 50.8682 37.4176 53.2099H58.5085C59.6836 32.7928 48.3267 40.6992 48.3267 21.476C47.6186 20.7841 46.9496 20.0994 46.2875 19.5089L46.311 18.9435C42.6588 11.4669 38.0255 7.72852 32.411 7.72852C23.9892 7.72852 21.3309 11.6473 19.0676 14.9744C20.76 20.7817 27.3281 21.6428 33.1642 25.2627C33.8521 24.7037 34.7293 24.3688 35.6847 24.3688C37.8939 24.3688 39.6847 26.1596 39.6847 28.3687C39.6847 30.5779 37.8939 32.3687 35.6847 32.3687C35.6238 32.3687 35.5632 32.3674 35.5029 32.3647Z" fill="#5A808A"/>
<circle cx="23" cy="27" r="1" fill="#5A808A"/>
</svg>
