<svg width="70" height="70" viewBox="0 0 70 70" fill="none" xmlns="http://www.w3.org/2000/svg">
<circle cx="35" cy="35" r="35" fill="#D9AE4F"/>
<path fill-rule="evenodd" clip-rule="evenodd" d="M37.3483 39.0386C40.2154 35.6732 42.156 31.5488 41.8317 26.9273C40.8974 13.6115 22.3613 16.5408 18.7557 23.2615C15.15 29.9821 15.5784 47.0297 20.2384 48.2309C22.0968 48.7099 26.0558 47.5365 30.085 45.1079L27.5559 63.0003H42.4893L37.3483 39.0386Z" fill="#EDECEA"/>
<path fill-rule="evenodd" clip-rule="evenodd" d="M12.1398 13.9443C12.449 12.8573 13.2808 11.9266 14.4017 11.6505C14.6736 11.5835 14.9543 11.5565 15.234 11.5677C15.3343 11.5717 15.3625 11.6007 15.4093 11.5305C15.4441 11.4785 15.4449 11.3514 15.4592 11.2903C15.5038 11.1002 15.5595 10.9125 15.6282 10.7296C15.8628 10.1059 16.2569 9.55396 16.7321 9.08898C17.6208 8.2191 18.8217 7.61875 20.0693 7.51014C20.7521 7.45073 21.43 7.56167 22.0755 7.7838C22.4098 7.89878 22.7338 8.04197 23.0495 8.20027C23.1445 8.24791 23.4529 8.48128 23.5482 8.46616C23.6536 8.44949 23.8653 8.18772 23.9509 8.12201C25.0095 7.30979 26.3168 6.99045 27.6355 7.00022C29.1238 7.01121 30.557 7.08558 31.7983 7.99289C32.0611 8.18498 32.3113 8.3953 32.5496 8.61674C32.6751 8.73332 32.7966 8.85427 32.9125 8.98025C32.9825 9.05625 33.0506 9.13397 33.1161 9.21378C33.2273 9.34924 33.2095 9.39374 33.3652 9.29922C33.9626 8.93628 34.6549 8.76654 35.3521 8.85223C35.7662 8.90314 36.169 9.02745 36.5515 9.19106C36.6817 9.24675 36.9832 9.46892 37.122 9.47109C37.2597 9.47321 37.5569 9.26727 37.6988 9.21492C38.4649 8.93211 39.2906 8.8624 40.0958 8.99308C40.9265 9.12793 41.7424 9.45932 42.4462 9.91727C42.7846 10.1376 43.08 10.3816 43.3172 10.7092C43.4196 10.8506 43.5122 11.0002 43.6283 11.1313C43.6962 11.2081 43.8308 11.2869 43.8673 11.3841C43.8455 11.3259 44.7757 10.9673 44.8635 10.9443C45.3311 10.8222 45.8073 10.847 46.2652 10.9977C47.1263 11.2811 47.8669 11.9165 48.4755 12.5681C48.7881 12.9028 49.0616 13.2727 49.2939 13.6668C49.4051 13.8556 49.5069 14.0498 49.6 14.2481C49.6451 14.3441 49.675 14.4643 49.7345 14.5509C49.8111 14.6624 49.8626 14.6645 50.0013 14.7131C50.7061 14.96 51.3485 15.3779 51.8377 15.9426C52.3326 16.5139 52.6537 17.2174 52.7883 17.9583C52.7962 18.0019 52.8009 18.1828 52.8265 18.2064C52.8615 18.239 53.0032 18.2246 53.0568 18.2309C53.2425 18.2526 53.4268 18.285 53.6087 18.3281C53.944 18.4075 54.2703 18.5243 54.579 18.677C55.7824 19.2724 56.643 20.3886 57.0642 21.6447C57.5061 22.9628 57.4983 24.473 56.9701 25.7665C56.8848 25.9754 56.7832 26.1782 56.664 26.3701C56.5908 26.4879 56.5672 26.4881 56.6147 26.6117C56.6677 26.7492 56.7645 26.8828 56.8274 27.0171C57.0327 27.4554 57.1762 27.9203 57.2669 28.3951C57.4156 29.174 57.4893 29.9925 57.3426 30.7773C57.2745 31.1417 57.1558 31.498 56.9747 31.8225C56.8823 31.988 56.7743 32.145 56.6523 32.2902C56.589 32.3656 56.5217 32.4376 56.4514 32.5065C56.4111 32.5459 56.3584 32.5804 56.3242 32.6244C56.2407 32.7317 56.2231 32.6435 56.2662 32.8011C56.3264 33.0214 56.4629 33.2387 56.5465 33.4531C56.6326 33.674 56.7105 33.8979 56.7817 34.124C56.9259 34.5819 57.0479 35.0481 57.1241 35.5223C57.2705 36.4328 57.2448 37.4029 56.8142 38.2385C56.63 38.5959 56.3659 38.9095 56.0455 39.1534C55.8887 39.2727 55.7188 39.3756 55.5406 39.46C55.4491 39.5035 55.3322 39.5221 55.2904 39.6107C55.2455 39.7059 55.3122 39.895 55.3274 40.0014C55.4598 40.9274 55.5262 41.8997 55.251 42.8072C54.9974 43.643 54.4392 44.381 53.7144 44.8696C52.3085 45.8174 50.4132 45.764 48.9359 45.0052C48.5508 44.8074 48.1906 44.5618 47.8692 44.2721C47.0508 45.3738 45.3668 45.3389 44.1708 45.025C42.6807 44.6339 41.485 43.5978 40.7961 42.2364C39.8541 43.3831 37.8771 43.0111 37.2239 41.7671C37.064 41.4626 36.9692 41.127 36.9225 40.7875C36.898 40.6089 36.9136 40.4288 36.8952 40.2516C36.8716 40.0259 36.7208 39.8066 36.6342 39.5882C36.4654 39.1632 36.3606 38.7242 36.3561 38.2659C36.3537 38.0265 36.384 37.7933 36.4068 37.5559C36.4273 37.3422 36.368 37.143 36.3343 36.9321C36.7165 36.995 37.1821 36.892 37.5422 36.7812C37.8955 36.6724 38.2264 36.386 38.4758 36.1245C39.0549 35.5171 39.4086 34.7209 39.6505 33.9284C40.1816 32.1892 39.9639 30.1024 38.2145 29.1479C37.3996 28.7032 34.9581 28.7047 33.9874 28.9244C32.9668 29.1555 31.8098 31.4075 31.7529 31.6192C31.7177 31.7502 31.7354 31.9123 31.615 31.9996C31.3505 32.1915 30.9144 31.8585 30.7193 31.6941C30.3826 31.4104 30.1425 31.0329 29.9345 30.6502C29.4814 29.8166 29.1161 28.9227 28.8581 28.0101C28.6591 27.3065 28.5319 26.581 28.2719 25.8954C28.0132 25.2132 27.6053 24.6034 26.9711 24.2169C26.2812 23.7964 25.4904 23.575 24.733 23.3108C23.9823 23.049 23.2446 22.7289 22.6626 22.1733C22.5347 22.0511 22.4104 21.9213 22.3074 21.7775C22.2261 21.6639 22.1458 21.4465 22.0219 21.3745C21.8293 21.2625 21.5482 21.5538 21.3817 21.6595C20.5601 22.1814 19.8747 22.9091 19.3218 23.7041C18.772 24.4948 18.3209 25.2556 17.9543 26.1386C17.6824 26.7934 17.5127 27.632 17.0345 28.1687C16.821 28.4083 15.234 28.5532 14.7199 28.344C14.2059 28.1348 13.6298 27.5916 13.4573 27.2512C13.2807 26.9028 13.2384 26.52 13.3139 26.1386C13.3583 25.9141 13.449 25.7045 13.4985 25.4841C13.5403 25.299 13.5782 25.124 13.6683 24.9543C13.8391 24.6329 14.1309 24.4019 14.4828 24.3053C14.1166 23.9676 13.8132 23.5637 13.6032 23.1122C13.385 22.6431 13.2001 22.0726 13.1476 21.5577C13.105 21.1395 13.1708 20.7063 13.3997 20.3469C13.6399 19.9699 14.0653 19.7239 14.4334 19.4888C13.8712 19.0488 13.3899 18.5138 12.9943 17.9215C12.2249 16.7696 11.749 15.3176 12.1398 13.9443Z" fill="#5A808A"/>
<circle cx="22" cy="31" r="1" fill="#5A808A"/>
</svg>
