<svg width="70" height="70" viewBox="0 0 70 70" fill="none" xmlns="http://www.w3.org/2000/svg">
<circle cx="35" cy="35" r="35" fill="#D9AE4F"/>
<path fill-rule="evenodd" clip-rule="evenodd" d="M16.4649 18.3019C13.958 27.5398 14.7737 56.2428 18.1074 59.5L37.1074 60.5C35.3745 66.9383 35.1156 54.5 35.122 51.4497C42.9391 50.5846 49.019 43.9568 49.019 35.909V20.6363C49.019 12.0006 42.0184 5 33.3827 5H31.9282C24.0858 5 17.5919 10.7735 16.4649 18.3019Z" fill="#5A808A"/>
<path fill-rule="evenodd" clip-rule="evenodd" d="M40.829 32.9938C44.1802 29.0602 46.4483 24.2395 46.0693 18.8377C44.9773 3.27379 23.3118 6.69766 19.0974 14.553C14.883 22.4083 15.3837 42.334 20.8305 43.738C23.0026 44.2979 27.6299 42.9264 32.3395 40.0877L29.3834 61.0009H46.8379L40.829 32.9938Z" fill="#EDECEA"/>
<path fill-rule="evenodd" clip-rule="evenodd" d="M36.1107 30.3647C35.3065 39.0032 33.8957 61.6583 36.2924 64L55.1076 60.5C56.2827 40.0829 48.9345 38.6992 48.9345 19.476C48.2264 18.7841 47.5573 18.0994 46.8953 17.5089L46.9188 16.9435C43.2666 9.46686 38.6333 5.72852 33.0188 5.72852C24.597 5.72852 21.9387 9.64728 19.6753 12.9744C21.3678 18.7817 27.9359 19.6428 33.772 23.2627C34.4599 22.7037 35.3371 22.3688 36.2925 22.3688C38.5016 22.3688 40.2925 24.1596 40.2925 26.3687C40.2925 28.5779 38.5016 30.3687 36.2925 30.3687C36.2316 30.3687 36.171 30.3674 36.1107 30.3647Z" fill="#5A808A"/>
<circle cx="23" cy="27" r="1" fill="#5A808A"/>
</svg>
