<svg width="64" height="64" viewBox="0 0 64 64" fill="none" xmlns="http://www.w3.org/2000/svg">
<g clip-path="url(#clip0_931_2943)">
<rect width="64" height="64" fill="#D9AE4F"/>
<path d="M43.825 21.125C43.425 17.275 42.025 14.5 39.625 12.8C37.275 11.05 34.25 10.175 30.55 10.175C29.05 10.175 27.575 10.325 26.125 10.625C24.675 10.925 23.375 11.425 22.225 12.125C21.125 12.825 20.225 13.775 19.525 14.975C18.875 16.125 18.55 17.575 18.55 19.325C18.55 20.975 19.025 22.325 19.975 23.375C20.975 24.375 22.275 25.2 23.875 25.85C25.525 26.5 27.375 27.05 29.425 27.5C31.475 27.9 33.55 28.35 35.65 28.85C37.8 29.35 39.9 29.95 41.95 30.65C44 31.3 45.825 32.2 47.425 33.35C49.075 34.5 50.375 35.95 51.325 37.7C52.325 39.45 52.825 41.65 52.825 44.3C52.825 47.15 52.175 49.6 50.875 51.65C49.625 53.65 48 55.3 46 56.6C44 57.85 41.75 58.75 39.25 59.3C36.8 59.9 34.35 60.2 31.9 60.2C28.9 60.2 26.05 59.825 23.35 59.075C20.7 58.325 18.35 57.2 16.3 55.7C14.3 54.15 12.7 52.2 11.5 49.85C10.35 47.45 9.775 44.625 9.775 41.375H16.525C16.525 43.625 16.95 45.575 17.8 47.225C18.7 48.825 19.85 50.15 21.25 51.2C22.7 52.25 24.375 53.025 26.275 53.525C28.175 54.025 30.125 54.275 32.125 54.275C33.725 54.275 35.325 54.125 36.925 53.825C38.575 53.525 40.05 53.025 41.35 52.325C42.65 51.575 43.7 50.575 44.5 49.325C45.3 48.075 45.7 46.475 45.7 44.525C45.7 42.675 45.2 41.175 44.2 40.025C43.25 38.875 41.95 37.95 40.3 37.25C38.7 36.5 36.875 35.9 34.825 35.45C32.775 35 30.675 34.55 28.525 34.1C26.425 33.6 24.35 33.05 22.3 32.45C20.25 31.8 18.4 30.975 16.75 29.975C15.15 28.925 13.85 27.6 12.85 26C11.9 24.35 11.425 22.3 11.425 19.85C11.425 17.15 11.975 14.825 13.075 12.875C14.175 10.875 15.625 9.25 17.425 8C19.275 6.7 21.35 5.75 23.65 5.15C26 4.5 28.4 4.175 30.85 4.175C33.6 4.175 36.15 4.5 38.5 5.15C40.85 5.8 42.9 6.825 44.65 8.225C46.45 9.625 47.85 11.4 48.85 13.55C49.9 15.65 50.475 18.175 50.575 21.125H43.825Z" fill="black"/>
</g>
<defs>
<clipPath id="clip0_931_2943">
<rect width="64" height="64" fill="white"/>
</clipPath>
</defs>
</svg>
