<svg width="83" height="75" viewBox="0 0 83 75" fill="none" xmlns="http://www.w3.org/2000/svg">
<g filter="url(#filter0_d_2018_2)">
<path d="M3.82149 17.2934L3.82154 13.0938C3.82154 11.875 4.55927 10.6007 6.23784 9.33898C7.91062 8.08163 10.4154 6.92072 13.6788 5.93516C20.197 3.96663 29.5638 2.75 40.8548 2.75C52.1458 2.75 61.5126 3.96663 68.0308 5.93516C71.2942 6.92072 73.7989 8.08163 75.4717 9.33898C77.1503 10.6007 77.888 11.875 77.888 13.0938V17.2854C77.3315 16.9001 76.6657 16.5921 75.9728 16.3474C74.2359 15.7339 72.1323 15.45 70.5689 15.45H43.5536H11.1952C9.63198 15.45 7.51544 15.7339 5.76581 16.3467C5.06191 16.5933 4.38538 16.9041 3.82149 17.2934ZM3.82154 59.6875V48.5576C4.42974 48.8591 5.16324 49.036 5.90288 49.1466C7.36738 49.3655 9.10583 49.355 10.486 49.3467C10.7353 49.3452 10.973 49.3438 11.1952 49.3438H43.5536H70.5689C70.7912 49.3438 71.0288 49.3452 71.2778 49.3467C72.6545 49.355 74.3816 49.3655 75.8348 49.1464C76.5636 49.0365 77.2867 48.8612 77.888 48.563V59.6875C77.888 61.5971 75.9558 63.375 73.2404 63.375H72.4904V64.125V68.5625C72.4904 70.4721 70.5582 72.25 67.8428 72.25H62.4452C59.7298 72.25 57.7976 70.4721 57.7976 68.5625V64.125V63.375H57.0476H24.662H23.912V64.125V68.5625C23.912 70.4721 21.9798 72.25 19.2644 72.25H13.8667C11.1513 72.25 9.21915 70.4721 9.21915 68.5625V64.125V63.375H8.46915C5.75372 63.375 3.82154 61.5971 3.82154 59.6875ZM16.9743 62.6878C18.5624 62.6878 20.1081 62.1704 21.2672 61.2174C22.4305 60.261 23.1219 58.9288 23.1219 57.5003C23.1219 56.0718 22.4305 54.7395 21.2672 53.7832C20.1081 52.8302 18.5624 52.3128 16.9743 52.3128C15.3862 52.3128 13.8404 52.8302 12.6813 53.7832C11.518 54.7395 10.8267 56.0718 10.8267 57.5003C10.8267 58.9288 11.518 60.261 12.6813 61.2174C13.8404 62.1704 15.3862 62.6878 16.9743 62.6878ZM65.1713 62.6562C66.7593 62.6562 68.3051 62.1389 69.4642 61.1859C70.6275 60.2295 71.3189 58.8973 71.3189 57.4688C71.3189 56.0402 70.6275 54.708 69.4642 53.7516C68.3051 52.7987 66.7593 52.2812 65.1713 52.2812C63.5832 52.2812 62.0374 52.7987 60.8783 53.7516C59.715 54.708 59.0237 56.0402 59.0237 57.4688C59.0237 58.8973 59.715 60.2295 60.8783 61.1859C62.0374 62.1389 63.5832 62.6562 65.1713 62.6562ZM57.4159 9.1C57.4159 7.33476 55.7216 6.13125 53.9671 6.13125H26.9791C25.2246 6.13125 23.5303 7.33476 23.5303 9.1C23.5303 10.8652 25.2246 12.0688 26.9791 12.0688H53.9671C55.7216 12.0688 57.4159 10.8652 57.4159 9.1Z" stroke="#E1AC38" stroke-width="1.5" shape-rendering="crispEdges"/>
</g>
<path d="M0 43.1579V43.0975C0.387956 42.4732 0.705375 41.5971 0.952257 40.4693C1.19914 39.3415 1.3843 38.0929 1.50774 36.7234C1.63118 35.354 1.6929 33.9241 1.6929 32.4338C1.6929 30.9434 1.63118 29.5236 1.50774 28.1743C1.3843 26.825 1.20796 25.6166 0.978708 24.5492C0.749461 23.4617 0.467311 22.636 0.132258 22.0721V22.0117H6.87741C7.01848 23.1596 7.03612 24.1766 6.93031 25.0628C6.82451 25.9288 6.64816 26.7243 6.40128 27.4493C6.1544 28.1541 5.87225 28.8087 5.55483 29.4129C5.23741 30.017 4.93763 30.6111 4.65548 31.1952C4.37333 31.7792 4.12645 32.3834 3.91483 33.0077C3.70322 33.6119 3.59741 34.2866 3.59741 35.0317C3.57978 36.3609 3.87075 37.3578 4.47032 38.0224C5.08752 38.6669 6.11913 38.979 7.56515 38.9589C9.01117 38.979 10.034 38.6669 10.6335 38.0224C11.2507 37.3578 11.5505 36.3609 11.5329 35.0317C11.5153 34.2866 11.4006 33.6119 11.189 33.0077C10.995 32.3834 10.757 31.7792 10.4748 31.1952C10.1927 30.6111 9.89289 30.017 9.57547 29.4129C9.25805 28.8087 8.9759 28.1541 8.72902 27.4493C8.48214 26.7243 8.30579 25.9288 8.19999 25.0628C8.09418 24.1766 8.11182 23.1596 8.25289 22.0117H14.998V22.0721C14.5043 22.8776 14.0634 23.9148 13.6755 25.1836C13.3051 26.4524 13.0494 27.8923 12.9084 29.5035C12.8731 29.9868 12.8378 30.5507 12.8026 31.1952C12.7673 31.8396 12.7585 32.5143 12.7761 33.2192C12.8114 33.9241 12.8819 34.6189 12.9877 35.3036C13.0935 35.9682 13.2699 36.5724 13.5168 37.1161C13.7813 37.6599 14.1251 38.103 14.5484 38.4453C14.9892 38.7676 15.5359 38.9287 16.1884 38.9287C17.6344 38.9488 18.6572 38.6367 19.2567 37.9922C19.8739 37.3276 20.1737 36.3307 20.1561 35.0015C20.1385 34.2564 20.0238 33.5817 19.8122 32.9775C19.6183 32.3532 19.3802 31.749 19.098 31.165C18.8159 30.5809 18.5161 29.9868 18.1987 29.3826C17.8813 28.7785 17.5991 28.1239 17.3522 27.4191C17.1054 26.694 16.929 25.8985 16.8232 25.0326C16.7174 24.1464 16.735 23.1294 16.8761 21.9814H23.6213L23.5419 22.0419C23.2068 22.5856 22.9247 23.4013 22.6955 24.4888C22.4662 25.5763 22.2899 26.8048 22.1664 28.1743C22.043 29.5236 21.9813 30.9535 21.9813 32.464C21.9813 33.9543 22.043 35.3942 22.1664 36.7838C22.2899 38.1533 22.475 39.402 22.7219 40.5298C22.9688 41.6576 23.2862 42.5336 23.6742 43.1579H0Z" fill="#282828"/>
<path d="M29.8521 43.6676C28.1931 43.6676 26.8559 43.2151 25.8407 42.3102C24.8255 41.377 24.3179 40.062 24.3179 38.3653C24.3179 36.7251 24.7883 35.4525 25.7293 34.5476C26.695 33.6427 27.8093 33.0205 29.0721 32.6812C30.3597 32.3419 31.8083 32.0873 33.4178 31.9177C34.6806 31.8328 35.6587 31.649 36.352 31.3662C37.0701 31.0834 37.4291 30.5461 37.4291 29.7543C37.4291 28.6232 37.0825 27.7607 36.3892 27.1668C35.7206 26.5447 34.9035 26.2336 33.9378 26.2336C32.7987 26.2336 31.8702 26.5871 31.1521 27.2941C30.434 28.001 30.013 28.9908 29.8892 30.2633H25.0979C25.1721 28.4252 25.6179 26.8557 26.435 25.5549C27.2521 24.2258 28.3169 23.2219 29.6292 22.5432C30.9664 21.8645 32.4273 21.5251 34.012 21.5251C35.5968 21.5251 37.0082 21.8645 38.2463 22.5432C39.4844 23.2219 40.4501 24.2116 41.1434 25.5125C41.8367 26.8133 42.1834 28.3687 42.1834 30.1785V37.9835H44.3376V43.1586H37.4663V35.5232C37.0453 37.8987 36.1787 39.8499 34.8663 41.377C33.5787 42.904 31.9073 43.6676 29.8521 43.6676ZM32.4149 39.0864C33.3063 39.0864 34.1358 38.7895 34.9035 38.1956C35.6711 37.6017 36.2777 36.8382 36.7234 35.905C37.1939 34.9435 37.4291 33.9255 37.4291 32.8509L37.4663 31.5359C37.1691 31.847 36.7977 32.0732 36.352 32.2146C35.9311 32.356 35.3368 32.4974 34.5692 32.6388C34.5197 32.6388 34.4701 32.6529 34.4206 32.6812C34.3711 32.6812 34.3339 32.6812 34.3092 32.6812C32.7492 32.8509 31.573 33.2185 30.7807 33.7841C29.9883 34.3214 29.5921 35.1415 29.5921 36.2444C29.5921 37.2058 29.8521 37.9269 30.3721 38.4077C30.8921 38.8602 31.573 39.0864 32.4149 39.0864Z" fill="#282828"/>
<path d="M50.622 43.1586V27.5486H43.602V21.9493H62.8418V27.5486H55.7848V43.1586H50.622Z" fill="#282828"/>
<path d="M64.5431 43.6676C63.9488 43.6676 63.4041 43.611 62.9088 43.4979C62.4136 43.3848 61.9803 43.2575 61.6089 43.1161V37.8138C61.9308 37.8704 62.2527 37.9128 62.5746 37.9411C62.8965 37.9694 63.2184 37.9835 63.5403 37.9835C63.8374 37.9835 64.1098 37.8845 64.3574 37.6866C64.605 37.4886 64.8031 37.1634 64.9517 36.711C65.1993 36.0323 65.3726 34.9152 65.4717 33.3599C65.5707 31.8046 65.645 29.9099 65.6945 27.6758C65.6945 27.3082 65.6945 26.9406 65.6945 26.5729C65.6945 26.177 65.6945 25.7953 65.6945 25.4276V21.9493H82V43.1586H76.8372V27.4213H70.4487V28.3121C70.3992 31.5642 70.263 34.2507 70.0402 36.3716C69.8421 38.4642 69.4954 40.0196 69.0002 41.0376C68.5792 41.9143 67.985 42.5788 67.2174 43.0313C66.4745 43.4555 65.5831 43.6676 64.5431 43.6676Z" fill="#282828"/>
<defs>
<filter id="filter0_d_2018_2" x="0.744629" y="0" width="82.2202" height="75" filterUnits="userSpaceOnUse" color-interpolation-filters="sRGB">
<feFlood flood-opacity="0" result="BackgroundImageFix"/>
<feColorMatrix in="SourceAlpha" type="matrix" values="0 0 0 0 0 0 0 0 0 0 0 0 0 0 0 0 0 0 127 0" result="hardAlpha"/>
<feOffset dx="1"/>
<feGaussianBlur stdDeviation="1"/>
<feComposite in2="hardAlpha" operator="out"/>
<feColorMatrix type="matrix" values="0 0 0 0 0 0 0 0 0 0 0 0 0 0 0 0 0 0 0.35 0"/>
<feBlend mode="normal" in2="BackgroundImageFix" result="effect1_dropShadow_2018_2"/>
<feBlend mode="normal" in="SourceGraphic" in2="effect1_dropShadow_2018_2" result="shape"/>
</filter>
</defs>
</svg>
