<svg width="45" height="24" viewBox="0 0 45 24" fill="none" xmlns="http://www.w3.org/2000/svg">
<rect width="45" height="24" rx="3" fill="black"/>
<path d="M29.7045 15V9.18182H31.6705C32.1269 9.18182 32.5 9.2642 32.7898 9.42898C33.0814 9.59186 33.2973 9.8125 33.4375 10.0909C33.5777 10.3693 33.6477 10.6799 33.6477 11.0227C33.6477 11.3655 33.5777 11.6771 33.4375 11.9574C33.2992 12.2377 33.0852 12.4612 32.7955 12.6278C32.5057 12.7926 32.1345 12.875 31.6818 12.875H30.2727V12.25H31.6591C31.9716 12.25 32.2225 12.196 32.4119 12.0881C32.6013 11.9801 32.7386 11.8343 32.8239 11.6506C32.911 11.465 32.9545 11.2557 32.9545 11.0227C32.9545 10.7898 32.911 10.5814 32.8239 10.3977C32.7386 10.214 32.6004 10.0701 32.4091 9.96591C32.2178 9.85985 31.964 9.80682 31.6477 9.80682H30.4091V15H29.7045ZM35.9759 15.1023C35.6993 15.1023 35.4484 15.0502 35.223 14.946C34.9976 14.84 34.8187 14.6875 34.6861 14.4886C34.5535 14.2879 34.4872 14.0455 34.4872 13.7614C34.4872 13.5114 34.5365 13.3087 34.6349 13.1534C34.7334 12.9962 34.8651 12.8731 35.0298 12.7841C35.1946 12.6951 35.3764 12.6288 35.5753 12.5852C35.776 12.5398 35.9777 12.5038 36.1804 12.4773C36.4455 12.4432 36.6605 12.4176 36.8253 12.4006C36.992 12.3816 37.1132 12.3504 37.1889 12.3068C37.2666 12.2633 37.3054 12.1875 37.3054 12.0795V12.0568C37.3054 11.7765 37.2287 11.5587 37.0753 11.4034C36.9238 11.2481 36.6937 11.1705 36.3849 11.1705C36.0649 11.1705 35.8139 11.2405 35.6321 11.3807C35.4503 11.5208 35.3224 11.6705 35.2486 11.8295L34.6122 11.6023C34.7259 11.3371 34.8774 11.1307 35.0668 10.983C35.258 10.8333 35.4664 10.7292 35.6918 10.6705C35.919 10.6098 36.1425 10.5795 36.3622 10.5795C36.5024 10.5795 36.6634 10.5966 36.8452 10.6307C37.0289 10.6629 37.206 10.7301 37.3764 10.8324C37.5488 10.9347 37.6918 11.089 37.8054 11.2955C37.919 11.5019 37.9759 11.7784 37.9759 12.125V15H37.3054V14.4091H37.2713C37.2259 14.5038 37.1501 14.6051 37.044 14.7131C36.938 14.821 36.7969 14.9129 36.6207 14.9886C36.4446 15.0644 36.2296 15.1023 35.9759 15.1023ZM36.0781 14.5C36.3433 14.5 36.5668 14.4479 36.7486 14.3438C36.9323 14.2396 37.0705 14.1051 37.1634 13.9403C37.258 13.7756 37.3054 13.6023 37.3054 13.4205V12.8068C37.277 12.8409 37.2145 12.8722 37.1179 12.9006C37.0232 12.9271 36.9134 12.9508 36.7884 12.9716C36.6652 12.9905 36.545 13.0076 36.4276 13.0227C36.312 13.036 36.2183 13.0473 36.1463 13.0568C35.9721 13.0795 35.8092 13.1165 35.6577 13.1676C35.508 13.2169 35.3868 13.2917 35.294 13.392C35.2031 13.4905 35.1577 13.625 35.1577 13.7955C35.1577 14.0284 35.2438 14.2045 35.4162 14.3239C35.5904 14.4413 35.8111 14.5 36.0781 14.5ZM39.4751 16.6364C39.3615 16.6364 39.2602 16.6269 39.1712 16.608C39.0821 16.5909 39.0206 16.5739 38.9865 16.5568L39.157 15.9659C39.3198 16.0076 39.4638 16.0227 39.5888 16.0114C39.7138 16 39.8246 15.9441 39.9212 15.8438C40.0196 15.7453 40.1096 15.5852 40.1911 15.3636L40.3161 15.0227L38.7024 10.6364H39.4297L40.6342 14.1136H40.6797L41.8842 10.6364H42.6115L40.7592 15.6364C40.6759 15.8617 40.5727 16.0483 40.4496 16.196C40.3265 16.3456 40.1835 16.4564 40.0206 16.5284C39.8596 16.6004 39.6778 16.6364 39.4751 16.6364Z" fill="white"/>
<rect x="3" y="7" width="25" height="10" rx="3" fill="white"/>
<path d="M5.52841 14V9.63636H6.51136V10.3778H6.5625C6.65341 10.1278 6.80398 9.93277 7.0142 9.79261C7.22443 9.65057 7.47538 9.57955 7.76705 9.57955C8.0625 9.57955 8.31155 9.65152 8.5142 9.79545C8.71875 9.9375 8.86269 10.1316 8.94602 10.3778H8.99148C9.08807 10.1354 9.25095 9.94223 9.48011 9.7983C9.71117 9.65246 9.98485 9.57955 10.3011 9.57955C10.7027 9.57955 11.0303 9.70644 11.2841 9.96023C11.5379 10.214 11.6648 10.5843 11.6648 11.071V14H10.6335V11.2301C10.6335 10.9593 10.5616 10.7614 10.4176 10.6364C10.2737 10.5095 10.0975 10.446 9.8892 10.446C9.6411 10.446 9.44697 10.5237 9.30682 10.679C9.16856 10.8324 9.09943 11.0322 9.09943 11.2784V14H8.09091V11.1875C8.09091 10.9621 8.02273 10.7822 7.88636 10.6477C7.75189 10.5133 7.57576 10.446 7.35795 10.446C7.21023 10.446 7.07576 10.4839 6.95455 10.5597C6.83333 10.6335 6.73674 10.7386 6.66477 10.875C6.5928 11.0095 6.55682 11.1667 6.55682 11.3466V14H5.52841ZM14.6115 14.0852C14.1854 14.0852 13.8161 13.9915 13.5036 13.804C13.1911 13.6165 12.9486 13.3542 12.7763 13.017C12.6058 12.6799 12.5206 12.286 12.5206 11.8352C12.5206 11.3845 12.6058 10.9896 12.7763 10.6506C12.9486 10.3116 13.1911 10.0483 13.5036 9.8608C13.8161 9.6733 14.1854 9.57955 14.6115 9.57955C15.0376 9.57955 15.407 9.6733 15.7195 9.8608C16.032 10.0483 16.2734 10.3116 16.4439 10.6506C16.6162 10.9896 16.7024 11.3845 16.7024 11.8352C16.7024 12.286 16.6162 12.6799 16.4439 13.017C16.2734 13.3542 16.032 13.6165 15.7195 13.804C15.407 13.9915 15.0376 14.0852 14.6115 14.0852ZM14.6172 13.2614C14.8482 13.2614 15.0414 13.1979 15.1967 13.071C15.352 12.9422 15.4676 12.7699 15.5433 12.554C15.621 12.3381 15.6598 12.0975 15.6598 11.8324C15.6598 11.5653 15.621 11.3239 15.5433 11.108C15.4676 10.8902 15.352 10.7169 15.1967 10.5881C15.0414 10.4593 14.8482 10.3949 14.6172 10.3949C14.3804 10.3949 14.1835 10.4593 14.0263 10.5881C13.871 10.7169 13.7545 10.8902 13.6768 11.108C13.6011 11.3239 13.5632 11.5653 13.5632 11.8324C13.5632 12.0975 13.6011 12.3381 13.6768 12.554C13.7545 12.7699 13.871 12.9422 14.0263 13.071C14.1835 13.1979 14.3804 13.2614 14.6172 13.2614ZM18.6037 11.4432V14H17.5753V9.63636H18.5582V10.3778H18.6094C18.7098 10.1335 18.8698 9.93939 19.0895 9.79545C19.3111 9.65152 19.5848 9.57955 19.9105 9.57955C20.2116 9.57955 20.474 9.64394 20.6974 9.77273C20.9228 9.90152 21.0971 10.0881 21.2202 10.3324C21.3452 10.5767 21.4067 10.8731 21.4048 11.2216V14H20.3764V11.3807C20.3764 11.089 20.3007 10.8608 20.1491 10.696C19.9995 10.5312 19.7921 10.4489 19.527 10.4489C19.3471 10.4489 19.187 10.4886 19.0469 10.5682C18.9086 10.6458 18.7997 10.7585 18.7202 10.9062C18.6425 11.054 18.6037 11.233 18.6037 11.4432ZM24.3537 14.0852C23.9276 14.0852 23.5582 13.9915 23.2457 13.804C22.9332 13.6165 22.6908 13.3542 22.5185 13.017C22.348 12.6799 22.2628 12.286 22.2628 11.8352C22.2628 11.3845 22.348 10.9896 22.5185 10.6506C22.6908 10.3116 22.9332 10.0483 23.2457 9.8608C23.5582 9.6733 23.9276 9.57955 24.3537 9.57955C24.7798 9.57955 25.1491 9.6733 25.4616 9.8608C25.7741 10.0483 26.0156 10.3116 26.1861 10.6506C26.3584 10.9896 26.4446 11.3845 26.4446 11.8352C26.4446 12.286 26.3584 12.6799 26.1861 13.017C26.0156 13.3542 25.7741 13.6165 25.4616 13.804C25.1491 13.9915 24.7798 14.0852 24.3537 14.0852ZM24.3594 13.2614C24.5904 13.2614 24.7836 13.1979 24.9389 13.071C25.0942 12.9422 25.2098 12.7699 25.2855 12.554C25.3632 12.3381 25.402 12.0975 25.402 11.8324C25.402 11.5653 25.3632 11.3239 25.2855 11.108C25.2098 10.8902 25.0942 10.7169 24.9389 10.5881C24.7836 10.4593 24.5904 10.3949 24.3594 10.3949C24.1226 10.3949 23.9257 10.4593 23.7685 10.5881C23.6132 10.7169 23.4967 10.8902 23.419 11.108C23.3433 11.3239 23.3054 11.5653 23.3054 11.8324C23.3054 12.0975 23.3433 12.3381 23.419 12.554C23.4967 12.7699 23.6132 12.9422 23.7685 13.071C23.9257 13.1979 24.1226 13.2614 24.3594 13.2614Z" fill="black"/>
</svg>
