<svg width="29" height="29" viewBox="0 0 29 29" fill="none" xmlns="http://www.w3.org/2000/svg">
<path d="M22.2031 0H6.79688C3.04306 0 0 3.04306 0 6.79688V22.2031C0 25.9569 3.04306 29 6.79688 29H22.2031C25.9569 29 29 25.9569 29 22.2031V6.79688C29 3.04306 25.9569 0 22.2031 0Z" fill="#5A808A"/>
<path d="M4.71658 22.9982H8.32096V14.2446L3.17188 10.3828V21.4534C3.17188 22.3082 3.86448 22.9982 4.71658 22.9982Z" fill="#D9AE4F"/>
<path d="M20.6787 22.9982H24.2832C25.1379 22.9982 25.8279 22.3057 25.8279 21.4534V10.3828L20.6787 14.2446" fill="#D9AE4F"/>
<path d="M20.6787 7.55311V14.247L25.8279 10.3853V8.32535C25.8279 6.41509 23.6472 5.326 22.1206 6.47173" fill="#CB9C34"/>
<path d="M8.32129 14.2447V7.55089L14.5002 12.1851L20.6791 7.55078V14.2447L14.5002 18.879" fill="#F8C85E"/>
<path d="M3.17188 8.32351V10.3831L8.32096 14.2449V7.55116L6.87923 6.46978C5.34993 5.32405 3.17188 6.41314 3.17188 8.32351Z" fill="#CB9C34"/>
</svg>
