<svg width="17" height="10" viewBox="0 0 17 10" fill="none" xmlns="http://www.w3.org/2000/svg">
<path d="M6.10889 1H11.1089V9H6.10889V1Z" fill="#FF5F00"/>
<path d="M6.22578 5C6.22578 3.4028 6.96802 1.98611 8.10889 1.06942C7.27046 0.402764 6.21206 0 5.05742 0C2.32192 0 0.108887 2.23608 0.108887 5C0.108887 7.76386 2.32192 10 5.05736 10C6.212 10 7.2704 9.59724 8.10889 8.93052C6.96802 8.02775 6.22578 6.5972 6.22578 5Z" fill="#EB001B"/>
<path d="M16.1088 5C16.1088 7.76386 13.8958 10 11.1604 10C10.0058 10 8.94737 9.59724 8.10889 8.93052C9.26352 8.01389 9.99205 6.5972 9.99205 5C9.99205 3.4028 9.24974 1.98611 8.10889 1.06942C8.94731 0.402764 10.0058 0 11.1604 0C13.8958 0 16.1088 2.25 16.1088 5Z" fill="#F79E1B"/>
</svg>
