<svg width="30" height="30" viewBox="0 0 30 30" fill="none" xmlns="http://www.w3.org/2000/svg">
<path d="M27.4571 12.5519H26.4502V12.5H15.2002V17.5H22.2646C21.2339 20.4106 18.4646 22.5 15.2002 22.5C11.0583 22.5 7.7002 19.1419 7.7002 15C7.7002 10.8581 11.0583 7.5 15.2002 7.5C17.1121 7.5 18.8514 8.22125 20.1758 9.39937L23.7114 5.86375C21.4789 3.78312 18.4927 2.5 15.2002 2.5C8.29707 2.5 2.7002 8.09688 2.7002 15C2.7002 21.9031 8.29707 27.5 15.2002 27.5C22.1033 27.5 27.7002 21.9031 27.7002 15C27.7002 14.1619 27.6139 13.3438 27.4571 12.5519Z" fill="#FFC107"/>
<path d="M4.1416 9.18188L8.24848 12.1938C9.35973 9.4425 12.051 7.5 15.2004 7.5C17.1122 7.5 18.8516 8.22125 20.176 9.39937L23.7116 5.86375C21.4791 3.78312 18.4929 2.5 15.2004 2.5C10.3991 2.5 6.23535 5.21062 4.1416 9.18188Z" fill="#FF3D00"/>
<path d="M15.2004 27.4995C18.4291 27.4995 21.3629 26.2638 23.581 24.2545L19.7123 20.9807C18.4151 21.9672 16.8301 22.5007 15.2004 22.4995C11.9491 22.4995 9.18852 20.4263 8.14852 17.5332L4.07227 20.6738C6.14102 24.722 10.3423 27.4995 15.2004 27.4995Z" fill="#4CAF50"/>
<path d="M27.4571 12.5519H26.4502V12.5H15.2002V17.5H22.2646C21.7716 18.8853 20.8835 20.0957 19.7102 20.9819L19.7121 20.9806L23.5808 24.2544C23.3071 24.5031 27.7002 21.25 27.7002 15C27.7002 14.1619 27.6139 13.3438 27.4571 12.5519Z" fill="#1976D2"/>
</svg>
