<svg width="36" height="24" viewBox="0 0 36 24" fill="none" xmlns="http://www.w3.org/2000/svg">
<rect width="36" height="24" rx="3" fill="black"/>
<path d="M12.0898 18.9372V18.0768C12.0898 17.7469 11.8857 17.5318 11.5358 17.5318C11.3609 17.5318 11.1714 17.5892 11.0401 17.7756C10.9381 17.6179 10.7924 17.5318 10.5737 17.5318C10.4279 17.5318 10.2822 17.5748 10.1655 17.7326V17.5605H9.85938V18.9372H10.1655V18.1771C10.1655 17.9334 10.2967 17.8186 10.5009 17.8186C10.7049 17.8186 10.807 17.9477 10.807 18.1771V18.9372H11.1131V18.1771C11.1131 17.9334 11.2588 17.8186 11.4483 17.8186C11.6525 17.8186 11.7545 17.9477 11.7545 18.1771V18.9372H12.0898ZM16.6234 17.5605H16.1279V17.1446H15.8217V17.5605H15.5447V17.8329H15.8217V18.464C15.8217 18.7795 15.9529 18.9659 16.3028 18.9659C16.434 18.9659 16.5797 18.9229 16.6818 18.8655L16.5943 18.6074C16.5068 18.6647 16.4048 18.6791 16.3319 18.6791C16.1862 18.6791 16.1279 18.5931 16.1279 18.4496V17.8329H16.6234V17.5605ZM19.2183 17.5318C19.0434 17.5318 18.9268 17.6179 18.8539 17.7326V17.5605H18.5478V18.9372H18.8539V18.1628C18.8539 17.9334 18.9559 17.8043 19.1454 17.8043C19.2037 17.8043 19.2766 17.8187 19.3349 17.833L19.4224 17.5462C19.3641 17.5318 19.2766 17.5318 19.2183 17.5318M15.2969 17.6753C15.1511 17.5749 14.947 17.5319 14.7283 17.5319C14.3785 17.5319 14.1453 17.704 14.1453 17.9764C14.1453 18.2059 14.3202 18.335 14.6263 18.378L14.7721 18.3924C14.9325 18.421 15.0199 18.464 15.0199 18.5358C15.0199 18.6361 14.9033 18.7078 14.6992 18.7078C14.4951 18.7078 14.3348 18.6361 14.2327 18.5645L14.0869 18.7939C14.2473 18.9086 14.466 18.966 14.6846 18.966C15.0928 18.966 15.3261 18.7796 15.3261 18.5214C15.3261 18.2776 15.1365 18.1485 14.845 18.1055L14.6992 18.0912C14.568 18.0768 14.466 18.0482 14.466 17.9621C14.466 17.8617 14.568 17.8044 14.7283 17.8044C14.9033 17.8044 15.0782 17.876 15.1657 17.9191L15.2969 17.6753ZM23.4314 17.5319C23.2564 17.5319 23.1398 17.6179 23.0668 17.7327V17.5606H22.7607V18.9373H23.0668V18.1629C23.0668 17.9335 23.1689 17.8044 23.3584 17.8044C23.4167 17.8044 23.4897 17.8188 23.548 17.8331L23.6354 17.5463C23.5771 17.5319 23.4897 17.5319 23.4314 17.5319ZM19.5245 18.2489C19.5245 18.6648 19.816 18.966 20.268 18.966C20.472 18.966 20.6178 18.923 20.7635 18.8083L20.6178 18.5645C20.5012 18.6505 20.3846 18.6935 20.2533 18.6935C20.0055 18.6935 19.8306 18.5214 19.8306 18.2489C19.8306 17.9908 20.0055 17.8187 20.2533 17.8044C20.3846 17.8044 20.5012 17.8474 20.6178 17.9335L20.7635 17.6897C20.6178 17.5749 20.472 17.5319 20.268 17.5319C19.816 17.5319 19.5245 17.8331 19.5245 18.2489ZM22.3526 18.2489V17.5606H22.0464V17.7327C21.9444 17.6036 21.7986 17.5319 21.6091 17.5319C21.2155 17.5319 20.9094 17.8331 20.9094 18.2489C20.9094 18.6648 21.2155 18.966 21.6091 18.966C21.8132 18.966 21.959 18.8943 22.0464 18.7652V18.9373H22.3526V18.2489ZM21.2301 18.2489C21.2301 18.0051 21.3904 17.8044 21.6528 17.8044C21.9006 17.8044 22.0756 17.9908 22.0756 18.2489C22.0756 18.4927 21.9006 18.6935 21.6528 18.6935C21.3904 18.6791 21.2301 18.4927 21.2301 18.2489ZM17.5711 17.5319C17.1629 17.5319 16.8713 17.8187 16.8713 18.2489C16.8713 18.6792 17.1628 18.966 17.5856 18.966C17.7897 18.966 17.9938 18.9086 18.1542 18.7796L18.0084 18.5645C17.8917 18.6505 17.746 18.7078 17.6002 18.7078C17.4107 18.7078 17.2212 18.6218 17.1774 18.3779H18.2125V18.2633C18.2271 17.8187 17.9647 17.5319 17.5711 17.5319ZM17.571 17.79C17.7605 17.79 17.8917 17.9048 17.9208 18.1199H17.192C17.2211 17.9335 17.3523 17.79 17.571 17.79ZM25.166 18.2489V17.0156H24.8599V17.7327C24.7578 17.6036 24.6121 17.5319 24.4225 17.5319C24.0289 17.5319 23.7228 17.8331 23.7228 18.2489C23.7228 18.6648 24.0289 18.966 24.4225 18.966C24.6267 18.966 24.7724 18.8943 24.8599 18.7652V18.9373H25.166V18.2489ZM24.0436 18.2489C24.0436 18.0051 24.2039 17.8044 24.4663 17.8044C24.7141 17.8044 24.889 17.9908 24.889 18.2489C24.889 18.4927 24.7141 18.6935 24.4663 18.6935C24.2039 18.6791 24.0436 18.4927 24.0436 18.2489ZM13.8099 18.2489V17.5606H13.5038V17.7327C13.4017 17.6036 13.2559 17.5319 13.0664 17.5319C12.6728 17.5319 12.3667 17.8331 12.3667 18.2489C12.3667 18.6648 12.6728 18.966 13.0664 18.966C13.2705 18.966 13.4163 18.8943 13.5038 18.7652V18.9373H13.8099V18.2489ZM12.6728 18.2489C12.6728 18.0051 12.8332 17.8044 13.0956 17.8044C13.3434 17.8044 13.5184 17.9908 13.5184 18.2489C13.5184 18.4927 13.3434 18.6935 13.0956 18.6935C12.8332 18.6791 12.6728 18.4927 12.6728 18.2489Z" fill="white"/>
<path d="M15.1953 7.10156H19.7873V15.2185H15.1953V7.10156Z" fill="#FF5F00"/>
<path d="M15.4872 11.1627C15.4872 9.51353 16.2743 8.05073 17.4843 7.10422C16.5951 6.41587 15.4726 6 14.2481 6C11.347 6 9 8.30884 9 11.1627C9 14.0165 11.347 16.3254 14.248 16.3254C15.4726 16.3254 16.595 15.9095 17.4843 15.2211C16.2743 14.289 15.4872 12.8119 15.4872 11.1627Z" fill="#EB001B"/>
<path d="M25.9843 11.1627C25.9843 14.0165 23.6373 16.3254 20.7362 16.3254C19.5117 16.3254 18.3892 15.9095 17.5 15.2211C18.7245 14.2747 19.4972 12.8119 19.4972 11.1627C19.4972 9.51353 18.7099 8.05073 17.5 7.10422C18.3892 6.41587 19.5117 6 20.7362 6C23.6373 6 25.9843 8.32321 25.9843 11.1627Z" fill="#F79E1B"/>
</svg>
