<svg width="17" height="9" viewBox="0 0 17 9" fill="none" xmlns="http://www.w3.org/2000/svg">
<path d="M8.5 1.53814L1.08633 8.81315C1.02658 8.87304 0.95565 8.92039 0.877638 8.95246C0.799626 8.98453 0.716081 9.00068 0.63184 8.99998C0.547598 8.99927 0.464331 8.98173 0.386858 8.94835C0.309386 8.91498 0.239245 8.86645 0.180495 8.80556C0.121745 8.74467 0.0755522 8.67263 0.0445903 8.59362C0.0136284 8.51461 -0.00148818 8.43019 0.00011545 8.34525C0.00171908 8.26031 0.0200111 8.17653 0.0539328 8.09877C0.0878545 8.021 0.136732 7.95079 0.197738 7.8922L8.05571 0.181995C8.17465 0.065295 8.33405 0 8.5 0C8.66595 0 8.82535 0.065295 8.94429 0.181995L16.8023 7.8922C16.8633 7.95079 16.9121 8.021 16.9461 8.09877C16.98 8.17653 16.9983 8.26031 16.9999 8.34525C17.0015 8.43019 16.9864 8.51461 16.9554 8.59362C16.9244 8.67263 16.8783 8.74467 16.8195 8.80556C16.7608 8.86645 16.6906 8.91498 16.6131 8.94835C16.5357 8.98173 16.4524 8.99927 16.3682 8.99998C16.2839 9.00068 16.2004 8.98453 16.1224 8.95246C16.0443 8.92039 15.9734 8.87304 15.9137 8.81315L8.5 1.53814Z" fill="black"/>
</svg>
