<svg width="29" height="29" viewBox="0 0 29 29" fill="none" xmlns="http://www.w3.org/2000/svg">
<circle cx="14.5" cy="14.5" r="11.5" fill="#5A808A"/>
<path d="M14.5 0C11.6322 0 8.82875 0.85041 6.44424 2.44369C4.05972 4.03697 2.20122 6.30156 1.10375 8.95109C0.00628262 11.6006 -0.280866 14.5161 0.27862 17.3288C0.838105 20.1415 2.2191 22.7252 4.24696 24.753C6.27482 26.7809 8.85847 28.1619 11.6712 28.7214C14.4839 29.2809 17.3994 28.9937 20.0489 27.8962C22.6984 26.7988 24.963 24.9403 26.5563 22.5558C28.1496 20.1712 29 17.3678 29 14.5C28.9962 10.6555 27.4673 6.96964 24.7488 4.25119C22.0304 1.53275 18.3445 0.0038387 14.5 0ZM23.1116 11.1838V12.1205C23.1116 12.1922 23.0972 12.2632 23.0694 12.3293C23.0415 12.3953 23.0007 12.4551 22.9493 12.5051C22.898 12.5551 22.8371 12.5944 22.7703 12.6204C22.7035 12.6465 22.6322 12.659 22.5606 12.657C21.0296 12.5489 19.5649 11.9899 18.3512 11.0504V17.906C18.3509 18.6648 18.1994 19.4159 17.9056 20.1154C17.6119 20.815 17.1817 21.449 16.6402 21.9805C16.0943 22.5259 15.445 22.9569 14.7304 23.2482C14.0159 23.5395 13.2503 23.6853 12.4787 23.677C10.927 23.6748 9.4377 23.066 8.3288 21.9805C7.62322 21.2692 7.115 20.3864 6.85415 19.419C6.5933 18.4516 6.5888 17.433 6.8411 16.4633C7.07165 15.5324 7.5371 14.6769 8.19395 13.9794C8.68381 13.3807 9.30128 12.899 10.0012 12.5696C10.7012 12.2402 11.4659 12.0714 12.2395 12.0756H13.4285V14.5449C13.429 14.6167 13.4142 14.6877 13.3851 14.7532C13.3561 14.8188 13.3133 14.8774 13.2598 14.9251C13.2063 14.9729 13.1432 15.0087 13.0748 15.0301C13.0064 15.0516 12.9341 15.0582 12.863 15.0495C12.1726 14.8422 11.4287 14.911 10.7881 15.2414C10.1474 15.5718 9.66011 16.1381 9.42884 16.8208C9.19756 17.5035 9.24041 18.2494 9.54833 18.9011C9.85625 19.5529 10.4052 20.0596 11.0795 20.3145C11.471 20.5392 11.9089 20.6712 12.3584 20.7016C12.7064 20.7161 13.0544 20.6726 13.385 20.5682C13.9369 20.382 14.4169 20.0283 14.7582 19.5563C15.0995 19.0842 15.285 18.5175 15.2888 17.935V5.4433C15.2888 5.30511 15.3436 5.17255 15.4412 5.0747C15.5388 4.97685 15.6712 4.92168 15.8094 4.9213H17.8611C17.9944 4.92146 18.1226 4.97263 18.2194 5.0643C18.3162 5.15596 18.3742 5.28119 18.3817 5.4143C18.4564 6.05408 18.6596 6.67217 18.9791 7.23153C19.2985 7.79089 19.7276 8.28 20.2406 8.66955C20.9338 9.18994 21.7571 9.50904 22.62 9.59175C22.7492 9.6028 22.8701 9.6603 22.9602 9.75361C23.0503 9.84691 23.1036 9.9697 23.1101 10.0992L23.1116 11.1838Z" fill="#D9AE4F"/>
</svg>
