<svg width="26" height="26" viewBox="0 0 26 26" fill="none" xmlns="http://www.w3.org/2000/svg">
<path fill-rule="evenodd" clip-rule="evenodd" d="M12.9999 15.3576L22.4282 24.7859C22.7425 25.0895 23.1635 25.2575 23.6005 25.2537C24.0375 25.2499 24.4556 25.0746 24.7646 24.7656C25.0736 24.4566 25.2489 24.0386 25.2527 23.6016C25.2565 23.1646 25.0885 22.7436 24.7849 22.4292L15.3565 13.0009L24.7849 3.57257C25.0885 3.25823 25.2565 2.83723 25.2527 2.40023C25.2489 1.96324 25.0736 1.54522 24.7646 1.2362C24.4556 0.927189 24.0375 0.751907 23.6005 0.74811C23.1635 0.744313 22.7425 0.912303 22.4282 1.2159L12.9999 10.6442L3.57153 1.2159C3.25578 0.919808 2.83722 0.758176 2.40442 0.765204C1.97161 0.772232 1.55852 0.947369 1.25255 1.25356C0.94658 1.55974 0.771734 1.97296 0.765013 2.40577C0.758291 2.83858 0.920219 3.25703 1.21653 3.57257L10.6432 13.0009L1.21487 22.4292C1.05568 22.583 0.928714 22.7669 0.841366 22.9702C0.754018 23.1736 0.708041 23.3923 0.706118 23.6136C0.704195 23.8349 0.746364 24.0543 0.830165 24.2592C0.913967 24.464 1.03772 24.6501 1.19421 24.8066C1.3507 24.963 1.53678 25.0868 1.74161 25.1706C1.94644 25.2544 2.1659 25.2966 2.3872 25.2947C2.6085 25.2927 2.8272 25.2467 3.03054 25.1594C3.23388 25.0721 3.41779 24.9451 3.57153 24.7859L12.9999 15.3576Z" fill="black"/>
</svg>
