<svg width="36" height="24" viewBox="0 0 36 24" fill="none" xmlns="http://www.w3.org/2000/svg">
<rect width="36" height="24" rx="3" fill="black"/>
<path d="M23.139 9.97097C23.8812 9.97097 24.4548 10.178 24.8935 10.592C25.332 11.0059 25.5344 11.5579 25.5344 12.2479V15.5598H24.5898V14.8009H24.556C24.1512 15.4219 23.5776 15.7324 22.9028 15.7324C22.3292 15.7324 21.8231 15.5598 21.4183 15.2149C21.0471 14.8699 20.8109 14.3869 20.8109 13.8694C20.8109 13.3174 21.0134 12.8689 21.4183 12.5239C21.8231 12.1789 22.3967 12.041 23.0715 12.041C23.6788 12.041 24.1512 12.1445 24.5223 12.386V12.1445C24.5223 11.8225 24.4047 11.5005 24.1696 11.2907L24.1174 11.2475C23.8475 11.006 23.5101 10.868 23.139 10.868C22.5654 10.868 22.1268 11.1095 21.8231 11.5925L20.9459 11.0404C21.4857 10.3159 22.1942 9.97097 23.139 9.97097ZM18.3817 7.625C18.9871 7.625 19.5624 7.84042 20.0224 8.24213L20.1024 8.31493C20.5748 8.72894 20.8109 9.34995 20.8109 10.0054C20.8109 10.6609 20.5748 11.2474 20.1024 11.6959C19.63 12.1444 19.0565 12.3858 18.3817 12.3858L16.7622 12.3513V15.5598H15.75V7.625H18.3817ZM23.2739 12.8689C22.869 12.8689 22.5316 12.9723 22.2617 13.1794C21.9918 13.3518 21.8569 13.5933 21.8569 13.9038C21.8569 14.1798 21.9919 14.4213 22.1942 14.5593C22.4304 14.7318 22.7003 14.8353 22.9703 14.8353C23.3481 14.8353 23.726 14.685 24.0216 14.4125L24.0837 14.3523C24.4211 14.0418 24.5898 13.6623 24.5898 13.2483C24.2861 13.0069 23.8475 12.8688 23.2739 12.8688M18.4493 8.5909H16.7623V11.351H18.4493C18.8204 11.351 19.1915 11.213 19.4277 10.937C19.9675 10.4195 19.9675 9.55706 19.4614 9.03952L19.4277 9.00501C19.1577 8.72904 18.8204 8.55655 18.4492 8.59106M31.0003 10.1435L27.6601 17.9748H26.6479L27.8962 15.2493L25.7031 10.178H26.7828L28.3685 14.0763H28.4023L29.9543 10.178H31.0003V10.1435Z" fill="white"/>
<path d="M12.7458 11.658C12.7458 11.3475 12.712 11.037 12.6783 10.7266H8.46094V12.486H10.8564C10.7552 13.038 10.4516 13.5554 9.97921 13.866V15.0044H11.43C12.2735 14.211 12.7458 13.038 12.7458 11.6581" fill="#4285F4"/>
<path d="M8.4617 16.1133C9.67628 16.1133 10.6885 15.6993 11.4308 15.0093L9.97998 13.8709C9.57508 14.1468 9.06899 14.3193 8.4617 14.3193C7.31452 14.3193 6.30234 13.5259 5.96494 12.4219H4.48047V13.5948C5.25646 15.1473 6.77473 16.1133 8.4617 16.1133Z" fill="#34A853"/>
<path d="M5.96529 12.4168C5.7629 11.8648 5.7629 11.2438 5.96529 10.6573V9.48438H4.48082C3.83973 10.7609 3.83973 12.2788 4.48082 13.5897L5.96529 12.4168Z" fill="#FBBC04"/>
<path d="M8.46316 8.79582C9.1042 8.79582 9.71149 9.03734 10.1839 9.4858L11.466 8.17486C10.6562 7.41586 9.57654 6.9674 8.49686 7.00185C6.80989 7.00185 5.25791 7.96786 4.51562 9.52031L6.00015 10.6933C6.3038 9.58928 7.31598 8.79582 8.46316 8.79582Z" fill="#EA4335"/>
</svg>
