<svg width="36" height="24" viewBox="0 0 36 24" fill="none" xmlns="http://www.w3.org/2000/svg">
<path d="M29.3813 10.6768C29.3813 10.6768 29.8562 12.6696 29.9625 13.0875H27.875C28.0812 12.6107 28.875 10.7571 28.875 10.7571C28.8625 10.7732 29.0812 10.2696 29.2062 9.95893L29.3813 10.6768ZM36 2.57143V21.4286C36 22.8482 34.6562 24 33 24H3C1.34375 24 0 22.8482 0 21.4286V2.57143C0 1.15179 1.34375 0 3 0H33C34.6562 0 36 1.15179 36 2.57143ZM9.53125 16.0286L13.4812 7.71429H10.825L8.36875 13.3929L8.1 12.2411L7.225 8.41607C7.08125 7.88571 6.6375 7.73571 6.0875 7.71429H2.04375L2 7.88036C2.9875 8.09464 3.86875 8.40536 4.6375 8.79643L6.875 16.0286H9.53125ZM15.4312 16.0393L17.0063 7.71429H14.4937L12.925 16.0393H15.4312ZM24.175 13.3179C24.1875 12.3696 23.5125 11.6464 22.0688 11.0518C21.1875 10.6714 20.65 10.4143 20.65 10.0232C20.6625 9.66964 21.1063 9.30536 22.0938 9.30536C22.9125 9.28929 23.5125 9.45536 23.9625 9.62143L24.1875 9.7125L24.5312 7.9125C24.0375 7.74643 23.25 7.55893 22.2812 7.55893C19.8 7.55893 18.0563 8.69464 18.0438 10.3125C18.025 11.5071 19.2937 12.1714 20.2437 12.5732C21.2125 12.9804 21.5438 13.2482 21.5438 13.6071C21.5312 14.1643 20.7563 14.4214 20.0375 14.4214C19.0375 14.4214 18.5 14.2875 17.6812 13.9768L17.35 13.8429L17 15.7125C17.5875 15.9429 18.675 16.1464 19.8 16.1571C22.4375 16.1625 24.1562 15.0429 24.175 13.3179ZM33 16.0393L30.975 7.71429H29.0312C28.4312 7.71429 27.975 7.86429 27.7188 8.40536L23.9875 16.0393H26.625C26.625 16.0393 27.0562 15.0107 27.15 14.7911H30.375C30.45 15.0857 30.675 16.0393 30.675 16.0393H33Z" fill="black"/>
</svg>
