<svg width="20" height="20" viewBox="0 0 20 20" fill="none" xmlns="http://www.w3.org/2000/svg">
<path d="M0 10C0 4.477 4.477 0 10 0C15.523 0 20 4.477 20 10C20 15.523 15.523 20 10 20C4.477 20 0 15.523 0 10ZM8.856 6.155C8.66573 6.04953 8.45123 5.99555 8.2337 5.99839C8.01617 6.00122 7.80315 6.06078 7.61569 6.17118C7.42824 6.28157 7.27284 6.43897 7.16485 6.62783C7.05687 6.81669 7.00005 7.03045 7 7.248V12.752C7.00005 12.9695 7.05687 13.1833 7.16485 13.3722C7.27284 13.561 7.42824 13.7184 7.61569 13.8288C7.80315 13.9392 8.01617 13.9988 8.2337 14.0016C8.45123 14.0044 8.66573 13.9505 8.856 13.845L14.613 10.656C14.7301 10.5911 14.8277 10.496 14.8957 10.3807C14.9636 10.2653 14.9995 10.1339 14.9995 10C14.9995 9.86611 14.9636 9.73467 14.8957 9.61932C14.8277 9.50396 14.7301 9.4089 14.613 9.344L8.856 6.155Z" fill="black"/>
</svg>
