<svg width="35" height="35" viewBox="0 0 35 35" fill="none" xmlns="http://www.w3.org/2000/svg">
<path d="M30.5317 11.0308C30.5206 10.0154 30.3346 9.00952 29.9819 8.05729C29.7255 7.36153 29.3164 6.73213 28.7846 6.21542C28.2678 5.68407 27.6384 5.27543 26.9427 5.01958C25.9903 4.6673 24.9846 4.48085 23.9692 4.46833C22.2804 4.3925 21.7744 4.375 17.5 4.375C13.2271 4.375 12.7181 4.38958 11.0308 4.46833C10.0154 4.4794 9.00952 4.66539 8.05729 5.01812C7.36131 5.27403 6.73181 5.68323 6.21542 6.21542C5.68492 6.73348 5.27643 7.36316 5.01958 8.05875C4.66752 9.01071 4.48107 10.0159 4.46833 11.0308C4.3925 12.721 4.375 13.2271 4.375 17.5015C4.375 21.7758 4.38958 22.2833 4.46833 23.9706C4.47987 24.9861 4.66635 25.992 5.01958 26.9442C5.27479 27.6383 5.68458 28.2683 6.21688 28.7831C6.73375 29.3151 7.36308 29.7246 8.05875 29.9819C9.00958 30.3348 10.0158 30.5215 11.0308 30.5317C12.7181 30.6104 13.2271 30.625 17.5 30.625C21.7729 30.625 22.2833 30.6104 23.9692 30.5317C24.9846 30.5206 25.9905 30.3346 26.9427 29.9819C27.6333 29.7157 28.2605 29.308 28.7839 28.7848C29.3073 28.2616 29.7154 27.6346 29.9819 26.9442C30.3339 25.9912 30.5199 24.985 30.5317 23.9692C30.6104 22.2833 30.625 21.7758 30.625 17.5C30.625 13.2242 30.6104 12.7196 30.5317 11.0308Z" fill="#5A808A"/>
<path d="M28.2656 9.35451C28.036 8.75881 27.6841 8.21782 27.2326 7.76638C26.7811 7.31494 26.2401 6.96308 25.6443 6.73345C24.8226 6.4297 23.9549 6.26875 23.0788 6.25757C21.6213 6.19065 21.1826 6.17578 17.4961 6.17578C13.8096 6.17578 13.3727 6.19065 11.9189 6.25757C11.0428 6.26698 10.175 6.42733 9.3534 6.73159C8.14687 7.19632 7.19689 8.14808 6.73213 9.35265C6.42724 10.1761 6.26736 11.0443 6.25621 11.9179C6.18928 13.3753 6.17627 13.8122 6.17627 17.5002C6.17627 21.1883 6.18928 21.627 6.25621 23.0825C6.2655 23.9581 6.42724 24.8262 6.73027 25.6478C6.96001 26.2435 7.31194 26.7844 7.7634 27.2358C8.21486 27.6873 8.75585 28.0392 9.35154 28.2689C10.1751 28.5719 11.0433 28.7336 11.917 28.7429C13.3727 28.8098 13.8096 28.8228 17.4979 28.8228C21.1863 28.8228 21.6251 28.8098 23.0807 28.7429C23.9568 28.7328 24.8247 28.5718 25.6462 28.267C26.2419 28.0373 26.7829 27.6854 27.2343 27.234C27.6858 26.7826 28.0377 26.2416 28.2675 25.646C28.5724 24.8262 28.7322 23.9581 28.7434 23.0807C28.8103 21.6252 28.8233 21.1883 28.8233 17.5002C28.8233 13.8122 28.8103 13.3753 28.7434 11.9198C28.7333 11.0437 28.5723 10.1759 28.2675 9.35451M17.4961 24.592C16.5647 24.592 15.6424 24.4085 14.782 24.0521C13.9215 23.6958 13.1396 23.1734 12.4811 22.5149C11.8225 21.8563 11.3001 21.0745 10.9436 20.2141C10.5872 19.3537 10.4038 18.4315 10.4038 17.5002C10.4038 16.5689 10.5872 15.6468 10.9436 14.7864C11.3001 13.9259 11.8225 13.1442 12.4811 12.4856C13.1396 11.8271 13.9215 11.3047 14.782 10.9483C15.6424 10.5919 16.5647 10.4085 17.4961 10.4085C19.3771 10.4085 21.181 11.1557 22.5111 12.4856C23.8412 13.8156 24.5884 15.6194 24.5884 17.5002C24.5884 19.3811 23.8412 21.1849 22.5111 22.5149C21.181 23.8448 19.3771 24.592 17.4961 24.592ZM24.8691 11.7841C24.4392 11.7697 24.0316 11.5888 23.7326 11.2796C23.4335 10.9704 23.2663 10.557 23.2663 10.1269C23.2663 9.69673 23.4335 9.28341 23.7326 8.97419C24.0316 8.66498 24.4392 8.48407 24.8691 8.46967C25.2991 8.48282 25.7091 8.66256 26.009 8.97094C26.309 9.27932 26.4774 9.6922 26.4786 10.1224C26.4798 10.5526 26.3137 10.9664 26.0155 11.2765C25.7173 11.5865 25.3102 11.7685 24.8803 11.7841H24.8691Z" fill="#D9AE4F"/>
<path d="M17.5 13.8887C16.7855 13.8887 16.0871 14.1005 15.4931 14.4975C14.8991 14.8944 14.4361 15.4585 14.1627 16.1186C13.8893 16.7787 13.8177 17.505 13.9571 18.2057C14.0965 18.9064 14.4405 19.5501 14.9457 20.0552C15.4509 20.5604 16.0945 20.9045 16.7953 21.0438C17.496 21.1832 18.2223 21.1117 18.8824 20.8383C19.5424 20.5649 20.1066 20.1019 20.5035 19.5078C20.9004 18.9138 21.1123 18.2154 21.1123 17.501C21.1123 16.5432 20.7319 15.6246 20.0548 14.9472C19.3777 14.2698 18.4592 13.8891 17.5014 13.8887" fill="#D9AE4F"/>
<path d="M31.9811 10.3098C31.968 9.18221 31.7608 8.06533 31.3686 7.0081C31.0833 6.23513 30.6283 5.53597 30.0371 4.96206C29.4633 4.37075 28.7641 3.91576 27.9911 3.6306C26.9331 3.23926 25.8159 3.0321 24.688 3.0181C22.8111 2.93643 22.2496 2.91602 17.4998 2.91602C12.753 2.91602 12.1886 2.93352 10.3132 3.0181C9.18519 3.03178 8.06793 3.23895 7.01005 3.6306C6.23665 3.91504 5.53731 4.37014 4.964 4.96206C4.37385 5.53681 3.91903 6.23573 3.63255 7.0081C3.24126 8.06609 3.0341 9.18329 3.02005 10.3112C2.93692 12.1881 2.9165 12.751 2.9165 17.5008C2.9165 22.2506 2.934 22.8135 3.02005 24.6889C3.03463 25.8162 3.24025 26.9348 3.63255 27.9921C3.91692 28.765 4.37192 29.465 4.96255 30.0366C5.5368 30.6274 6.23586 31.0823 7.00859 31.3681C8.06672 31.7607 9.18463 31.9679 10.3132 31.9806C12.1871 32.0666 12.7515 32.0827 17.4998 32.0827C22.2496 32.0827 22.8125 32.0652 24.6894 31.9806C25.817 31.9676 26.9339 31.7604 27.9911 31.3681C28.7585 31.0723 29.4555 30.6191 30.0372 30.0376C30.6189 29.4562 31.0724 28.7594 31.3686 27.9921C31.7594 26.9333 31.9665 25.8162 31.9811 24.6889C32.0657 22.8121 32.0832 22.2477 32.0832 17.4993C32.0832 12.7496 32.0657 12.1881 31.9811 10.3098ZM28.2696 21.9662C28.2524 22.8654 28.0822 23.755 27.7665 24.5971C27.4881 25.3168 27.0624 25.9705 26.5167 26.5162C25.971 27.0619 25.3173 27.4876 24.5975 27.766C23.7558 28.0812 22.8668 28.2513 21.9682 28.2691C20.8117 28.3231 20.4428 28.3348 17.4998 28.3348C14.5569 28.3348 14.1894 28.3216 13.033 28.2691C12.1344 28.2512 11.2453 28.0811 10.4036 27.766C9.68352 27.4878 9.02953 27.0622 8.48357 26.5165C7.9376 25.9708 7.5117 25.317 7.23317 24.5971C6.91784 23.7549 6.74771 22.8653 6.73005 21.9662C6.679 20.8112 6.66442 20.4423 6.66442 17.4993C6.66442 14.5564 6.67755 14.1875 6.73005 13.0325C6.74771 12.1334 6.91784 11.2438 7.23317 10.4016C7.51162 9.68165 7.93749 9.02782 8.48347 8.4821C9.02945 7.93637 9.68347 7.5108 10.4036 7.23268C11.2453 6.91751 12.1344 6.74739 13.033 6.72956C14.1894 6.6756 14.5598 6.66393 17.5013 6.66393C20.4428 6.66393 20.8117 6.67706 21.9682 6.72956C22.8673 6.747 23.7569 6.91713 24.599 7.23268C25.3185 7.5113 25.9719 7.93708 26.5173 8.48277C27.0627 9.02846 27.4882 9.68203 27.7665 10.4016C28.083 11.2446 28.2521 12.1327 28.2696 13.0325C28.3221 14.1875 28.3353 14.5564 28.3353 17.4993C28.3353 20.4423 28.3221 20.8098 28.2696 21.9662Z" fill="#D9AE4F"/>
</svg>
