<svg width="24" height="26" viewBox="0 0 24 26" fill="none" xmlns="http://www.w3.org/2000/svg">
<path d="M22.9248 11.9107H12.8382V0.992556C12.8382 0.729314 12.7416 0.476853 12.5696 0.290713C12.3976 0.104573 12.1644 0 11.9212 0C11.678 0 11.4448 0.104573 11.2728 0.290713C11.1008 0.476853 11.0042 0.729314 11.0042 0.992556V11.9107H0.91757C0.674375 11.9107 0.44114 12.0152 0.269175 12.2014C0.09721 12.3875 0.000600873 12.64 0.000600873 12.9032C-0.00392403 13.0322 0.0171492 13.1608 0.0624002 13.2802C0.107651 13.3996 0.176028 13.5072 0.262924 13.5956C0.34982 13.684 0.453216 13.7513 0.566142 13.7928C0.679069 13.8343 0.798904 13.8491 0.91757 13.8362H11.0042V24.8139C11.0042 25.0771 11.1008 25.3296 11.2728 25.5157C11.4448 25.7019 11.678 25.8065 11.9212 25.8065C12.1644 25.8065 12.3976 25.7019 12.5696 25.5157C12.7416 25.3296 12.8382 25.0771 12.8382 24.8139V13.8958H22.9248C23.168 13.8958 23.4013 13.7912 23.5732 13.6051C23.7452 13.4189 23.8418 13.1665 23.8418 12.9032C23.8418 12.64 23.7452 12.3875 23.5732 12.2014C23.4013 12.0152 23.168 11.9107 22.9248 11.9107Z" fill="#5A808A"/>
</svg>
