<svg width="26" height="8" viewBox="0 0 26 8" fill="none" xmlns="http://www.w3.org/2000/svg">
<path d="M18.9005 0.327691C18.2962 0.106631 17.6575 -0.00429799 17.0144 0.000127365C14.9348 0.000127365 13.466 1.05199 13.4556 2.56191C13.4426 3.67119 14.4993 4.29631 15.2987 4.66694C16.1189 5.04801 16.3931 5.28813 16.3905 5.62875C16.3853 6.14685 15.7354 6.38175 15.131 6.38175C14.3005 6.38175 13.8468 6.26561 13.1488 5.97458L12.8902 5.85322L12.5951 7.59152C13.1007 7.80294 14.0119 7.98434 14.953 8C17.1639 8 18.6093 6.95467 18.6262 5.34817C18.6444 4.46205 18.0725 3.79256 16.8689 3.23923C16.1371 2.88034 15.6834 2.64022 15.6834 2.27611C15.6834 1.95377 16.0721 1.60924 16.8845 1.60924C17.4251 1.5961 17.9624 1.69795 18.4611 1.90809L18.6561 1.99553L18.9512 0.315946L18.9005 0.327691ZM24.2973 0.141071H22.6725C22.1669 0.141071 21.786 0.28071 21.5651 0.784454L18.4403 7.89168H20.6513L21.0932 6.72628L23.7916 6.72889C23.8553 7.00165 24.0503 7.89168 24.0503 7.89168H26L24.2973 0.141071ZM10.4647 0.075819H12.5717L11.2537 7.83035H9.14933L10.4647 0.0732091V0.075819ZM5.11603 4.34981L5.3344 5.42647L7.39329 0.141071H9.62506L6.30925 7.88124H4.08269L2.26296 1.32735C2.23349 1.21928 2.16427 1.12647 2.06929 1.06765C1.41341 0.727473 0.718461 0.469324 0 0.29898L0.0285957 0.13585H3.41979C3.87992 0.154121 4.25036 0.29898 4.37384 0.792284L5.11473 4.35373L5.11603 4.34981ZM21.6976 5.14066L22.5373 2.97169C22.5269 2.99519 22.7102 2.52407 22.8168 2.23304L22.9611 2.90253L23.4485 5.13936H21.6963L21.6976 5.14066Z" fill="#3C3C3C"/>
</svg>
